# Blender 3.5.1
# www.blender.org
mtllib BrazoIzq.mtl
o X360_XO-W_AMBIANT_Monkey.001
v 0.011979 -0.010301 -0.016037
v 0.015658 0.000555 -0.008174
v 0.008292 0.003038 0.011541
v 0.015393 0.004326 0.002572
v -0.013508 -0.015571 0.009532
v -0.003722 -0.003796 0.014703
v -0.010468 -0.022248 -0.010653
v -0.000047 -0.020704 -0.015965
v -0.015181 -0.022545 -0.000739
v 0.011979 -0.010301 -0.016037
v -0.015181 -0.022545 -0.000739
v -0.010468 -0.022248 -0.010653
v 0.046241 -0.095349 0.021948
v 0.048316 -0.095732 0.016858
v 0.039001 -0.094221 0.026315
v 0.028802 -0.095375 0.027797
v 0.046826 -0.097645 0.012279
v 0.021982 -0.097672 0.024535
v 0.031549 -0.101898 0.007793
v 0.025696 -0.101588 0.010263
v 0.020185 -0.099262 0.019851
v 0.021982 -0.097672 0.024535
v 0.037936 -0.100585 0.007208
v 0.042118 -0.099573 0.009435
v 0.052707 -0.148036 0.021843
v 0.051170 -0.149520 0.027308
v 0.051651 -0.148115 0.017447
v 0.051651 -0.148115 0.017447
v 0.046201 -0.149174 0.017523
v 0.035613 -0.151397 0.019787
v 0.030035 -0.152430 0.022222
v 0.030603 -0.152229 0.026785
v 0.033762 -0.152051 0.030308
v 0.033762 -0.152051 0.030308
v 0.043835 -0.151538 0.029208
v 0.046826 -0.097645 0.012279
v 0.036817 -0.156153 0.022826
v 0.043835 -0.151538 0.029208
v 0.048023 -0.152716 0.025249
v 0.051170 -0.149520 0.027308
v 0.037025 -0.155734 0.027439
v 0.036817 -0.156153 0.022826
v 0.047469 -0.152942 0.020413
v 0.047469 -0.152942 0.020413
v 0.030035 -0.152430 0.022222
v 0.037025 -0.155734 0.027439
v 0.048023 -0.152716 0.025249
v 0.025696 -0.101588 0.010263
v 0.021487 -0.099701 0.015869
v 0.047469 -0.152942 0.020413
v 0.021487 -0.099701 0.015869
v 0.030344 -0.055917 0.002884
v 0.025645 -0.059075 -0.001514
v 0.025716 -0.055469 0.016922
v 0.032227 -0.055407 0.010948
v 0.011097 -0.063114 0.013990
v 0.016811 -0.058334 0.018555
v 0.041904 -0.087665 0.017468
v 0.039288 -0.080267 0.014239
v 0.033491 -0.080344 0.019521
v 0.035476 -0.087062 0.022788
v 0.026170 -0.081920 0.019817
v 0.027642 -0.088152 0.022223
v 0.038949 -0.090045 0.009714
v 0.035563 -0.091366 0.008678
v 0.032938 -0.083013 0.005999
v 0.036873 -0.082079 0.008058
v 0.027961 -0.083843 0.005881
v 0.030746 -0.092141 0.008902
v 0.026217 -0.092777 0.010131
v 0.022242 -0.085105 0.007243
v 0.019510 -0.084825 0.011657
v 0.021599 -0.091329 0.013455
v 0.022374 -0.090679 0.018667
v 0.020049 -0.084521 0.015818
v 0.041397 -0.088894 0.012460
v 0.038949 -0.090045 0.009714
v 0.036873 -0.082079 0.008058
v 0.018771 -0.062583 -0.001802
v 0.013187 -0.065578 0.001369
v 0.009438 -0.066159 0.006956
v 0.025645 -0.059075 -0.001514
v 0.013187 -0.065578 0.001369
v 0.009438 -0.066159 0.006956
v 0.022242 -0.085105 0.007243
v 0.026217 -0.092777 0.010131
v 0.021599 -0.091329 0.013455
v 0.019510 -0.084825 0.011657
v 0.041904 -0.087665 0.017468
v 0.035476 -0.087062 0.022788
v 0.027642 -0.088152 0.022223
v 0.041397 -0.088894 0.012460
v 0.022374 -0.090679 0.018667
v 0.030746 -0.092141 0.008902
v 0.026217 -0.092777 0.010131
v 0.022374 -0.090679 0.018667
v 0.035563 -0.091366 0.008678
v 0.038949 -0.090045 0.009714
v 0.052854 -0.125235 0.019007
v 0.050433 -0.124946 0.024834
v 0.051625 -0.126954 0.015277
v 0.045418 -0.130482 0.013932
v 0.051625 -0.126954 0.015277
v 0.027936 -0.132453 0.019514
v 0.037531 -0.131941 0.015297
v 0.027743 -0.131483 0.025415
v 0.027936 -0.132453 0.019514
v 0.031397 -0.126362 0.029827
v 0.042924 -0.125015 0.029753
v 0.031397 -0.126362 0.029827
v 0.041397 -0.088894 0.012460
v 0.021599 -0.091329 0.013455
v 0.021599 -0.091329 0.013455
v 0.020933 -0.119483 0.018078
v 0.020933 -0.119483 0.018078
v 0.019579 -0.117726 0.023510
v 0.021676 -0.117063 0.028302
v 0.021676 -0.117063 0.028302
v 0.020933 -0.119483 0.018078
v 0.021599 -0.091329 0.013455
v -0.000954 -0.013231 -0.017394
v 0.011073 -0.002828 -0.017466
v 0.006496 0.009465 -0.021611
v 0.006231 0.013236 -0.010866
v -0.000870 0.011948 -0.001897
v -0.012884 0.005115 0.001265
v -0.012928 -0.021024 -0.014353
v -0.000849 -0.019378 -0.023958
v 0.008783 -0.000670 -0.011289
v 0.009771 0.010413 -0.019620
v 0.006963 0.006143 -0.029444
v 0.002772 0.012647 -0.015685
v -0.014891 0.008513 -0.026725
v -0.014879 0.002979 -0.023482
vn 0.9964 0.0829 0.0170
vn 0.7636 0.1026 0.6374
vn 0.9387 -0.3447 -0.0058
vn 0.7588 -0.2301 0.6094
vn 0.1914 -0.0703 0.9790
vn 0.3016 0.0670 0.9511
vn 0.3109 0.3715 0.8748
vn -0.1821 0.3592 0.9153
vn 0.7080 -0.7047 -0.0462
vn 0.7251 0.3802 0.5742
vn 0.9237 0.3810 -0.0402
vn 0.1664 0.5183 0.8388
vn -0.3335 0.5357 0.7758
vn -0.5236 0.3310 0.7850
vn -0.1575 0.0746 0.9847
vn -0.0178 0.0446 0.9988
vn 0.0992 -0.2125 0.9721
vn 0.1184 -0.5427 0.8315
vn -0.6353 0.5170 0.5738
vn 0.7383 -0.6723 -0.0531
vn 0.9131 -0.3592 -0.1926
vn 0.9478 0.0232 -0.3181
vn 0.8719 0.2807 -0.4012
vn 0.7598 0.5812 -0.2915
vn 0.7050 0.6692 0.2346
vn -0.9887 0.0537 0.1403
vn -0.9698 0.0688 -0.2342
vn -0.9862 0.1457 0.0784
vn -0.9919 0.1262 -0.0103
vn -0.9380 0.1696 0.3023
vn -0.9718 -0.1978 0.1287
vn -0.9454 -0.3017 -0.1234
vn -0.8727 -0.2613 0.4125
vn -0.9574 -0.2884 0.0160
vn -0.8472 -0.5189 0.1138
vn -0.7886 -0.4897 0.3718
vn -0.1242 -0.9667 0.2236
vn -0.6534 -0.4486 0.6097
vn -0.5784 -0.2548 0.7750
vn -0.8556 -0.1933 0.4803
vn -0.0904 -0.9915 0.0940
vn 0.2762 -0.9607 0.0288
vn 0.3272 -0.8714 0.3654
vn 0.3294 -0.7512 0.5720
vn 0.3527 -0.7268 0.5893
vn 0.1848 -0.0056 -0.9828
vn 0.4749 0.0829 -0.8761
vn 0.0797 -0.1709 -0.9821
vn 0.2847 -0.0991 -0.9535
vn 0.0815 -0.3028 -0.9496
vn 0.4702 0.1376 -0.8718
vn 0.5924 0.2564 -0.7637
vn 0.4983 0.2274 -0.8367
vn 0.0747 0.1757 -0.9816
vn -0.1963 0.0801 -0.9773
vn -0.2411 -0.1042 -0.9649
vn -0.2435 -0.2371 -0.9405
vn -0.2242 -0.3748 -0.8996
vn -0.0228 -0.3945 -0.9186
vn -0.4010 -0.1188 -0.9084
vn -0.3768 -0.2368 -0.8955
vn -0.3297 -0.3161 -0.8896
vn -0.1212 -0.5680 -0.8141
vn 0.0380 -0.6000 -0.7991
vn -0.3586 -0.2918 -0.8867
vn -0.4272 0.0118 -0.9041
vn -0.5795 0.0221 -0.8147
vn -0.8116 -0.1005 -0.5756
vn -0.8103 -0.0850 -0.5798
vn -0.8059 -0.0434 -0.5905
vn -0.8142 -0.1508 -0.5607
vn -0.5976 -0.5346 -0.5975
vn -0.6686 -0.4896 -0.5597
vn -0.7395 -0.4679 -0.4840
vn -0.7716 -0.4383 -0.4609
vn -0.7067 -0.4968 -0.5038
vn -0.6966 -0.4954 -0.5189
vn -0.8822 0.2126 -0.4202
vn -0.7332 0.4662 -0.4951
vn 0.7560 0.5970 0.2684
vn 0.9181 0.2838 0.2767
vn 0.9052 0.3155 -0.2848
vn 0.8562 0.1137 -0.5040
vn 0.2813 0.5826 0.7625
vn 0.4129 0.2103 0.8862
vn -0.2855 0.3294 0.9000
vn 0.9191 0.3621 0.1552
vn 0.3371 0.3388 0.8784
vn -0.2054 -0.0234 0.9784
vn -0.8417 -0.0444 0.5382
vn -0.8291 -0.3924 0.3982
vn -0.7171 -0.2849 0.6361
vn -0.2878 0.1160 0.9506
vn -0.3413 0.2827 0.8964
vn 0.2692 0.4844 0.8324
vn 0.8531 0.4301 0.2952
vn 0.8791 0.2015 -0.4319
vn 0.8626 0.1788 -0.4733
vn 0.7348 0.0509 -0.6764
vn -0.9506 -0.2573 0.1734
vn -0.8162 -0.0349 0.5767
vn -0.9160 -0.3716 0.1516
vn -0.8267 -0.2068 0.5232
vn -0.8579 -0.3758 0.3504
vn 0.1899 -0.2453 -0.9507
vn -0.0743 -0.3497 -0.9339
vn 0.2747 -0.2149 -0.9372
vn 0.3885 -0.1484 -0.9094
vn 0.4780 -0.0868 -0.8741
vn 0.1853 -0.2412 -0.9526
vn 0.3413 -0.1568 -0.9268
vn -0.0733 -0.3321 -0.9404
vn -0.0598 -0.3420 -0.9378
vn -0.0382 -0.3503 -0.9359
vn -0.1671 -0.3967 -0.9026
vn -0.1361 -0.3731 -0.9177
vn -0.2630 -0.4069 -0.8748
vn -0.3484 -0.4348 -0.8304
vn 0.8255 0.1021 -0.5551
vn 0.6832 0.0001 -0.7302
vn -0.7556 0.5508 0.3546
vn -0.5720 -0.7360 -0.3621
vn -0.0426 -0.7866 -0.6160
vn -0.6831 -0.2066 -0.7004
vn 0.0987 -0.8822 -0.4604
vn -0.1738 0.9404 0.2925
vn 0.8615 0.1580 -0.4826
vn 0.3849 0.9226 -0.0269
vn 0.1819 0.2644 -0.9471
vn 0.3715 -0.0005 -0.9284
vn -0.2994 -0.1227 -0.9462
vn -0.0570 0.9671 -0.2478
vn -0.4048 0.3444 -0.8471
vn 0.2941 0.4946 0.8179
vn -0.5353 0.0842 0.8405
vn 0.8932 0.0225 -0.4490
vn 0.5815 -0.1240 0.8040
vn -0.9433 -0.1416 -0.3002
vt 0.824707 0.226563
vt 0.000000 0.000000
vt 0.816895 0.254395
vt 0.814941 0.306152
vt 0.813965 0.280273
vt 0.829590 0.365723
vt 0.819336 0.334473
vt 0.837891 0.170410
vt 0.833496 0.196777
vt 0.841309 0.393555
vt 0.000000 0.000000
vt 0.824707 0.226563
vt 0.846680 0.144531
vt 0.837891 0.170410
vt 0.895508 0.549561
vt 0.887207 0.547363
vt 0.918457 0.555664
vt 0.948730 0.557129
vt 0.872070 0.549805
vt 0.966797 0.555176
vt 0.817871 0.550781
vt 0.801758 0.555420
vt 0.976074 0.553711
vt 0.966797 0.555176
vt 0.835449 0.547852
vt 0.849121 0.548096
vt 0.881836 0.417969
vt 0.892090 0.420898
vt 0.870605 0.414551
vt 0.859375 0.417480
vt 0.844238 0.419922
vt 0.812500 0.423828
vt 0.959473 0.415039
vt 0.950684 0.419434
vt 0.942871 0.421875
vt 0.942871 0.421875
vt 0.913574 0.419434
vt 0.865723 0.548096
vt 0.813965 0.411621
vt 0.913574 0.419434
vt 0.899902 0.408691
vt 0.892090 0.420898
vt 0.935059 0.409668
vt 0.938965 0.401855
vt 0.892578 0.402344
vt 0.847168 0.410156
vt 0.797363 0.422852
vt 0.935059 0.409668
vt 0.899902 0.408691
vt 0.801758 0.555420
vt 0.786133 0.563232
vt 0.892578 0.402344
vt 0.984863 0.552734
vt 0.910645 0.257324
vt 0.909180 0.239746
vt 0.912109 0.296875
vt 0.913086 0.276855
vt 0.912598 0.336426
vt 0.911621 0.317383
vt 0.970703 0.277344
vt 0.956055 0.273926
vt 0.954102 0.291016
vt 0.968750 0.291992
vt 0.952148 0.307129
vt 0.965820 0.306152
vt 0.969727 0.256836
vt 0.968262 0.247559
vt 0.952148 0.247070
vt 0.955078 0.258789
vt 0.949219 0.234863
vt 0.966309 0.237305
vt 0.964355 0.228027
vt 0.948242 0.222168
vt 0.951172 0.333008
vt 0.963379 0.327637
vt 0.963867 0.318848
vt 0.950195 0.322754
vt 0.970215 0.266602
vt 0.969727 0.256836
vt 0.955078 0.258789
vt 0.909180 0.222168
vt 0.913574 0.205566
vt 0.918945 0.354492
vt 0.909180 0.239746
vt 0.913574 0.205566
vt 0.919922 0.189453
vt 0.948242 0.222168
vt 0.964355 0.228027
vt 0.962891 0.218262
vt 0.951172 0.211426
vt 0.900879 0.572510
vt 0.922363 0.574951
vt 0.948242 0.574219
vt 0.889160 0.575684
vt 0.965820 0.572998
vt 0.817871 0.574707
vt 0.805176 0.577393
vt 0.965820 0.572998
vt 0.833496 0.572510
vt 0.846191 0.573486
vt 0.880859 0.476074
vt 0.890625 0.478516
vt 0.869629 0.473633
vt 0.849121 0.469238
vt 0.865234 0.472168
vt 0.797852 0.477051
vt 0.822754 0.471680
vt 0.954590 0.472656
vt 0.964355 0.468750
vt 0.946289 0.481445
vt 0.913086 0.481445
vt 0.946289 0.481445
vt 0.857910 0.574219
vt 0.788574 0.583252
vt 0.788574 0.583252
vt 0.781250 0.514404
vt 0.781250 0.514404
vt 0.982422 0.507080
vt 0.971680 0.509033
vt 0.971680 0.509033
vt 0.991211 0.505615
vt 0.981445 0.568604
vt 0.833496 0.196777
vt 0.000000 0.000000
vt 0.824707 0.226563
vt 0.000000 0.000000
vt 0.816895 0.254395
vt 0.813965 0.280273
vt 0.814941 0.306152
vt 0.819336 0.334473
vt 0.829590 0.365723
vt 0.833496 0.196777
vt 0.824707 0.226563
vt 0.000000 0.000000
vt 0.816895 0.254395
vt 0.000000 0.000000
vt 0.813965 0.280273
vt 0.814941 0.306152
vt 0.819336 0.334473
vt 0.829590 0.365723
s 1
usemtl 360_XOW_AMB_MON_BRO_B
f 99/101/1 100/102/2 25/27/3
f 26/28/4 25/27/3 100/102/2
f 26/28/4 100/102/2 35/37/5
f 109/111/6 35/37/5 100/102/2
f 109/111/6 100/102/2 15/17/7
f 15/17/7 16/18/8 109/111/6
f 47/49/9 25/27/3 26/28/4
f 13/15/10 15/17/7 100/102/2
f 100/102/2 99/101/1 13/15/10
f 14/16/11 13/15/10 99/101/1
f 15/17/7 13/15/10 90/92/12
f 90/92/12 91/93/13 15/17/7
f 16/18/8 15/17/7 91/93/13
f 16/18/8 91/93/13 18/20/14
f 18/20/14 118/120/15 16/18/8
f 110/112/16 16/18/8 118/120/15
f 110/112/16 109/111/6 16/18/8
f 110/112/16 34/36/17 109/111/6
f 35/37/5 109/111/6 34/36/17
f 35/37/5 34/36/17 46/48/18
f 93/95/19 18/20/14 91/93/13
f 50/52/20 27/29/21 47/49/9
f 25/27/3 47/49/9 27/29/21
f 27/29/21 101/103/22 25/27/3
f 99/101/1 25/27/3 101/103/22
f 101/103/22 17/19/23 99/101/1
f 14/16/11 99/101/1 17/19/23
f 17/19/23 92/94/24 14/16/11
f 89/91/25 14/16/11 92/94/24
f 14/16/11 89/91/25 13/15/10
f 89/91/25 90/92/12 13/15/10
f 120/122/26 51/53/27 96/98/28
f 21/23/29 22/24/30 96/98/28
f 21/23/29 96/98/28 51/53/27
f 21/23/29 51/53/27 116/118/31
f 119/121/32 116/118/31 51/53/27
f 116/118/31 119/121/32 106/108/33
f 107/109/34 106/108/33 119/121/32
f 107/109/34 31/33/35 106/108/33
f 32/34/36 106/108/33 31/33/35
f 32/34/36 31/33/35 41/43/37
f 33/35/38 32/34/36 41/43/37
f 32/34/36 33/35/38 106/108/33
f 108/110/39 106/108/33 33/35/38
f 117/119/40 106/108/33 108/110/39
f 116/118/31 106/108/33 117/119/40
f 116/118/31 117/119/40 21/23/29
f 22/24/30 21/23/29 117/119/40
f 42/44/41 41/43/37 31/33/35
f 42/44/41 43/45/42 41/43/37
f 39/41/43 41/43/37 43/45/42
f 38/40/44 41/43/37 39/41/43
f 39/41/43 40/42/45 38/40/44
f 23/25/46 24/26/47 102/104/48
f 103/105/49 28/30/50 102/104/48
f 102/104/48 24/26/47 103/105/49
f 36/38/51 103/105/49 24/26/47
f 36/38/51 24/26/47 111/113/52
f 98/100/53 111/113/52 24/26/47
f 24/26/47 23/25/46 98/100/53
f 97/99/54 98/100/53 23/25/46
f 97/99/54 23/25/46 94/96/55
f 19/21/56 94/96/55 23/25/46
f 23/25/46 102/104/48 19/21/56
f 105/107/57 19/21/56 102/104/48
f 105/107/57 102/104/48 30/32/58
f 29/31/59 30/32/58 102/104/48
f 19/21/56 20/22/60 94/96/55
f 19/21/56 105/107/57 20/22/60
f 104/106/61 20/22/60 105/107/57
f 104/106/61 105/107/57 30/32/58
f 30/32/58 45/47/62 104/106/61
f 37/39/63 45/47/62 30/32/58
f 37/39/63 30/32/58 29/31/59
f 29/31/59 44/46/64 37/39/63
f 29/31/59 28/30/50 44/46/64
f 29/31/59 102/104/48 28/30/50
f 104/106/61 114/116/65 20/22/60
f 95/97/66 20/22/60 112/114/67
f 95/97/66 94/96/55 20/22/60
f 49/51/68 48/50/69 115/117/70
f 49/51/68 113/115/71 48/50/69
f 86/88/72 87/89/73 85/87/74
f 88/90/75 85/87/74 87/89/73
f 85/87/74 88/90/75 83/85/76
f 84/86/77 83/85/76 88/90/75
f 84/86/77 11/13/78 83/85/76
f 12/14/79 83/85/76 11/13/78
f 4/5/80 55/57/81 2/3/82
f 52/54/83 2/3/82 55/57/81
f 4/5/80 3/4/84 55/57/81
f 54/56/85 55/57/81 3/4/84
f 3/4/84 6/7/86 54/56/85
f 55/57/81 59/61/87 52/54/83
f 59/61/87 55/57/81 60/62/88
f 54/56/85 60/62/88 55/57/81
f 54/56/85 57/59/89 60/62/88
f 57/59/89 54/56/85 6/7/86
f 6/7/86 5/6/90 57/59/89
f 5/6/90 9/10/91 56/58/92
f 56/58/92 57/59/89 5/6/90
f 57/59/89 56/58/92 62/64/93
f 62/64/93 60/62/88 57/59/89
f 62/64/93 63/65/94 60/62/88
f 61/63/95 60/62/88 63/65/94
f 61/63/95 58/60/96 60/62/88
f 59/61/87 60/62/88 58/60/96
f 59/61/87 58/60/96 76/78/97
f 59/61/87 76/78/97 78/80/98
f 77/79/99 78/80/98 76/78/97
f 73/75/100 74/76/101 72/74/102
f 75/77/103 72/74/102 74/76/101
f 74/76/101 63/65/94 75/77/103
f 62/64/93 75/77/103 63/65/94
f 75/77/103 62/64/93 56/58/92
f 56/58/92 81/83/104 75/77/103
f 81/83/104 56/58/92 9/10/91
f 72/74/102 75/77/103 81/83/104
f 65/67/105 69/71/106 66/68/107
f 65/67/105 66/68/107 64/66/108
f 67/69/109 64/66/108 66/68/107
f 66/68/107 82/84/110 67/69/109
f 10/12/111 82/84/110 8/9/112
f 79/81/113 8/9/112 82/84/110
f 82/84/110 66/68/107 79/81/113
f 68/70/114 79/81/113 66/68/107
f 68/70/114 66/68/107 69/71/106
f 69/71/106 70/72/115 68/70/114
f 71/73/116 68/70/114 70/72/115
f 71/73/116 80/82/117 68/70/114
f 79/81/113 68/70/114 80/82/117
f 80/82/117 7/8/118 79/81/113
f 8/9/112 79/81/113 7/8/118
f 2/3/82 52/54/83 1/1/119
f 53/55/120 1/1/119 52/54/83
f 52/54/83 78/80/98 53/55/120
f 78/80/98 52/54/83 59/61/87
f 5/6/90 126/130/121 127/131/122
f 5/6/90 12/14/79 11/13/78
f 121/123/123 134/140/124 128/132/125
f 8/9/112 127/131/122 121/123/123
f 6/7/86 125/129/126 126/130/121
s 0
f 2/2/127 122/124/127 123/126/127
s 1
f 2/3/82 124/128/128 4/5/80
f 10/12/111 121/123/123 122/125/129
f 4/5/80 125/129/126 3/4/84
f 134/140/124 131/137/130 129/133/131
f 126/130/121 132/138/132 133/139/133
f 124/128/128 130/135/134 131/137/130
s 0
f 122/124/135 130/136/135 123/126/135
s 1
f 126/130/121 134/140/124 127/131/122
f 124/128/128 132/138/132 125/129/126
f 122/125/129 128/132/125 129/133/131
f 5/6/90 6/7/86 126/130/121
f 5/6/90 8/9/112 12/14/79
f 121/123/123 127/131/122 134/140/124
f 8/9/112 5/6/90 127/131/122
f 6/7/86 3/4/84 125/129/126
s 0
f 2/2/136 10/11/136 122/124/136
s 1
f 2/3/82 123/127/137 124/128/128
f 10/12/111 8/9/112 121/123/123
f 4/5/80 124/128/128 125/129/126
f 129/133/131 128/132/125 134/140/124
f 134/140/124 133/139/133 132/138/132
f 131/137/130 130/135/134 129/133/131
f 134/140/124 132/138/132 131/137/130
f 126/130/121 125/129/126 132/138/132
f 124/128/128 123/127/137 130/135/134
s 0
f 122/124/138 129/134/138 130/136/138
s 1
f 126/130/121 133/139/133 134/140/124
f 124/128/128 131/137/130 132/138/132
f 122/125/129 121/123/123 128/132/125
