# Blender 3.5.1
# www.blender.org
mtllib cola2.mtl
o X360_XO-W_AMBIANT_Monkey.006
v -0.007847 -0.001976 -0.072139
v -0.007043 -0.005580 -0.072101
v -0.006218 0.002270 -0.072368
v -0.001440 0.005197 -0.072771
v -0.001440 -0.008132 -0.071845
v -0.007847 -0.003267 -0.023645
v -0.007043 -0.007305 -0.023606
v -0.006218 0.001490 -0.023873
v -0.001440 0.004772 -0.024276
v -0.001440 -0.010166 -0.023351
v 0.004965 -0.001976 -0.072139
v 0.004162 -0.005580 -0.072101
v 0.003338 0.002270 -0.072368
v -0.001440 0.005197 -0.072771
v -0.001440 -0.008132 -0.071845
v 0.004965 -0.003267 -0.023645
v 0.004162 -0.007305 -0.023606
v 0.003338 0.001490 -0.023873
v -0.001440 0.004772 -0.024276
v -0.001440 -0.010166 -0.023351
v -0.007847 -0.003105 0.000602
v -0.007043 -0.007914 0.000641
v -0.006218 0.002003 0.000374
v -0.001440 0.005526 -0.000029
v -0.001440 -0.010985 0.000896
v -0.006973 -0.002003 -0.097111
v -0.006279 -0.005274 -0.097078
v -0.005567 0.001849 -0.097309
v -0.001440 0.004506 -0.097656
v -0.001440 -0.007590 -0.096857
v -0.007847 -0.002621 -0.047892
v -0.007043 -0.006443 -0.047853
v -0.006218 0.001880 -0.048121
v -0.001440 0.004985 -0.048523
v -0.001440 -0.009149 -0.047598
v 0.004162 -0.007914 0.000641
v 0.004965 -0.003105 0.000602
v 0.003338 0.002003 0.000374
v -0.001440 0.005526 -0.000029
v -0.001440 -0.010985 0.000896
v 0.003398 -0.005274 -0.097078
v 0.004092 -0.002003 -0.097111
v 0.002686 0.001849 -0.097309
v -0.001440 0.004506 -0.097656
v -0.001440 -0.007590 -0.096857
v 0.004162 -0.006443 -0.047853
v 0.004965 -0.002621 -0.047892
v 0.003338 0.001880 -0.048121
v -0.001440 0.004985 -0.048523
v -0.001440 -0.009149 -0.047598
vn 0.4957 0.0545 0.8668
vn 0.9979 0.0649 -0.0026
vn 0.4500 0.3542 0.8198
vn 0.7979 0.6027 -0.0032
vn 0.9976 0.0695 0.0005
vn 0.7831 0.6218 0.0093
vn 0.9971 0.0740 -0.0165
vn 0.7695 0.6385 -0.0123
vn 0.5961 0.0231 -0.8026
vn 0.4438 0.3213 -0.8366
vn 0.4549 -0.3781 -0.8063
vn 0.7783 -0.6273 -0.0251
vn 0.7867 -0.6169 -0.0230
vn 0.7963 -0.6045 -0.0200
vn 0.4793 -0.3271 0.8144
vn 0.1616 -0.4238 -0.8912
vn 0.4144 -0.9097 -0.0266
vn 0.4344 -0.9001 -0.0350
vn 0.4548 -0.8901 -0.0298
vn 0.1860 -0.2607 0.9473
vn 0.2671 0.4610 0.8462
vn 0.5655 0.8247 -0.0050
vn 0.5432 0.8395 0.0104
vn 0.5238 0.8518 -0.0115
vn 0.2208 0.2186 -0.9505
vn -0.5961 0.0231 -0.8026
vn -0.4549 -0.3782 -0.8063
vn -0.9971 0.0740 -0.0165
vn -0.7783 -0.6274 -0.0251
vn -0.5426 0.8396 -0.0233
vn -0.4437 0.3213 -0.8366
vn -0.5238 0.8518 -0.0115
vn -0.7695 0.6386 -0.0123
vn -0.5432 0.8395 0.0104
vn -0.9979 0.0650 -0.0026
vn -0.7979 0.6028 -0.0032
vn -0.9976 0.0695 0.0005
vn -0.7831 0.6219 0.0093
vn -0.5655 0.8247 -0.0050
vn -0.5921 0.8057 -0.0177
vn -0.4499 0.3543 0.8198
vn -0.4957 0.0545 0.8668
vn -0.7867 -0.6170 -0.0230
vn -0.7963 -0.6045 -0.0200
vn -0.4793 -0.3272 0.8144
vn -0.4795 -0.8771 -0.0296
vn -0.4547 -0.8901 -0.0298
vn -0.4343 -0.9001 -0.0350
vn -0.4143 -0.9097 -0.0266
vn -0.4293 -0.9028 -0.0238
vt 0.584473 0.063965
vt 0.583008 0.050781
vt 0.583496 0.076172
vt 0.579590 0.088379
vt 0.578613 0.037598
vt 0.702148 0.063965
vt 0.702637 0.048828
vt 0.703125 0.078613
vt 0.702637 0.093750
vt 0.701172 0.033203
vt 0.584473 0.063965
vt 0.583008 0.050781
vt 0.583496 0.076172
vt 0.579590 0.088379
vt 0.578613 0.037598
vt 0.702148 0.063965
vt 0.702637 0.048828
vt 0.703125 0.078613
vt 0.702637 0.093750
vt 0.701172 0.033203
vt 0.763184 0.063965
vt 0.763184 0.047852
vt 0.763184 0.079590
vt 0.762207 0.095703
vt 0.762207 0.031738
vt 0.515625 0.063965
vt 0.515137 0.052734
vt 0.515137 0.074707
vt 0.514160 0.085938
vt 0.513672 0.041016
vt 0.643066 0.063965
vt 0.642578 0.049805
vt 0.643066 0.077148
vt 0.642578 0.091797
vt 0.641113 0.035156
vt 0.763184 0.047852
vt 0.763184 0.063965
vt 0.763184 0.079590
vt 0.762207 0.095703
vt 0.762207 0.031738
vt 0.515137 0.052734
vt 0.515625 0.063965
vt 0.515137 0.074707
vt 0.514160 0.085938
vt 0.513672 0.041016
vt 0.642578 0.049805
vt 0.643066 0.063965
vt 0.643066 0.077148
vt 0.642578 0.091797
vt 0.641113 0.035156
s 1
usemtl 360_XOW_AMB_MON_BRO_B
f 37/37/1 16/16/2 38/38/3
f 18/18/4 38/38/3 16/16/2
f 16/16/2 47/47/5 18/18/4
f 48/48/6 18/18/4 47/47/5
f 47/47/5 11/11/7 48/48/6
f 13/13/8 48/48/6 11/11/7
f 11/11/7 42/42/9 13/13/8
f 43/43/10 13/13/8 42/42/9
f 42/42/9 11/11/7 41/41/11
f 12/12/12 41/41/11 11/11/7
f 11/11/7 47/47/5 12/12/12
f 46/46/13 12/12/12 47/47/5
f 47/47/5 16/16/2 46/46/13
f 17/17/14 46/46/13 16/16/2
f 17/17/14 16/16/2 36/36/15
f 37/37/1 36/36/15 16/16/2
f 41/41/11 12/12/12 45/45/16
f 15/15/17 45/45/16 12/12/12
f 12/12/12 46/46/13 15/15/17
f 50/50/18 15/15/17 46/46/13
f 46/46/13 17/17/14 50/50/18
f 20/20/19 50/50/18 17/17/14
f 17/17/14 36/36/15 20/20/19
f 40/40/20 20/20/19 36/36/15
f 38/38/3 18/18/4 39/39/21
f 19/19/22 39/39/21 18/18/4
f 18/18/4 48/48/6 19/19/22
f 49/49/23 19/19/22 48/48/6
f 48/48/6 13/13/8 49/49/23
f 14/14/24 49/49/23 13/13/8
f 13/13/8 43/43/10 14/14/24
f 44/44/25 14/14/24 43/43/10
f 26/26/26 27/27/27 1/1/28
f 2/2/29 1/1/28 27/27/27
f 29/29/30 28/28/31 4/4/32
f 3/3/33 4/4/32 28/28/31
f 4/4/32 3/3/33 34/34/34
f 6/6/35 8/8/36 31/31/37
f 33/33/38 31/31/37 8/8/36
f 31/31/37 33/33/38 1/1/28
f 3/3/33 1/1/28 33/33/38
f 1/1/28 3/3/33 26/26/26
f 28/28/31 26/26/26 3/3/33
f 33/33/38 34/34/34 3/3/33
f 34/34/34 33/33/38 9/9/39
f 8/8/36 9/9/39 33/33/38
f 9/9/39 8/8/36 24/24/40
f 23/23/41 24/24/40 8/8/36
f 21/21/42 23/23/41 6/6/35
f 8/8/36 6/6/35 23/23/41
f 1/1/28 2/2/29 31/31/37
f 32/32/43 31/31/37 2/2/29
f 31/31/37 32/32/43 6/6/35
f 7/7/44 6/6/35 32/32/43
f 7/7/44 22/22/45 6/6/35
f 21/21/42 6/6/35 22/22/45
f 25/25/46 22/22/45 10/10/47
f 7/7/44 10/10/47 22/22/45
f 10/10/47 7/7/44 35/35/48
f 32/32/43 35/35/48 7/7/44
f 35/35/48 32/32/43 5/5/49
f 2/2/29 5/5/49 32/32/43
f 5/5/49 2/2/29 30/30/50
f 27/27/27 30/30/50 2/2/29
f 27/27/27 28/28/31 43/43/10
f 23/23/41 22/22/45 36/36/15
f 43/43/10 42/42/9 41/41/11
f 41/41/11 45/45/16 27/27/27
f 27/27/27 26/26/26 28/28/31
f 28/28/31 44/44/25 43/43/10
f 43/43/10 41/41/11 27/27/27
f 36/36/15 37/37/1 38/38/3
f 38/38/3 39/39/21 23/23/41
f 23/23/41 21/21/42 22/22/45
f 22/22/45 40/40/20 36/36/15
f 36/36/15 38/38/3 23/23/41
