# Blender 3.5.1
# www.blender.org
mtllib cola1.mtl
o X360_XO-W_AMBIANT_Monkey.007
v -0.012345 0.007439 -0.014723
v -0.000927 0.012969 -0.016860
v -0.000927 -0.021016 -0.006752
v -0.007262 -0.000247 -0.025949
v -0.006385 -0.007334 -0.026136
v -0.005838 0.006129 -0.025877
v -0.000927 0.011451 -0.026039
v -0.000927 -0.010750 -0.026366
v 0.010491 0.007439 -0.014723
v 0.015742 0.010314 -0.008591
v -0.000927 0.012969 -0.016860
v -0.000927 -0.021016 -0.006752
v 0.005408 -0.000247 -0.025949
v 0.004531 -0.007334 -0.026136
v 0.003983 0.006129 -0.025877
v -0.000927 0.011451 -0.026039
v -0.000927 -0.010750 -0.026366
v -0.016660 -0.002050 -0.014436
v -0.012593 -0.010775 -0.014839
v -0.017740 -0.018529 -0.006652
v -0.023186 -0.003831 -0.006898
v -0.017597 0.010314 -0.008591
v -0.000927 0.016931 -0.013419
v -0.000927 -0.014514 -0.014273
v -0.007298 -0.000073 -0.038970
v -0.006458 -0.006406 -0.039044
v -0.005772 0.005845 -0.039048
v -0.000927 0.010388 -0.039330
v -0.000927 -0.009755 -0.039032
v -0.007333 0.000101 -0.051991
v -0.007333 -0.000060 -0.076238
v -0.006530 -0.004869 -0.076199
v -0.006530 -0.005478 -0.051952
v -0.005705 0.005560 -0.052220
v -0.005705 0.005047 -0.076467
v -0.000927 0.009325 -0.052622
v -0.000927 0.008571 -0.076869
v -0.000927 -0.007941 -0.075944
v -0.000927 -0.008760 -0.051697
v 0.014806 -0.002050 -0.014436
v 0.021332 -0.003831 -0.006898
v 0.015886 -0.018529 -0.006652
v 0.010739 -0.010775 -0.014839
v -0.000927 0.016931 -0.013419
v -0.000927 -0.014514 -0.014273
v 0.004603 -0.006406 -0.039044
v 0.005444 -0.000073 -0.038970
v 0.003918 0.005845 -0.039048
v -0.000927 0.010388 -0.039330
v -0.000927 -0.009755 -0.039032
v 0.005479 0.000101 -0.051991
v 0.004675 -0.005478 -0.051952
v 0.004675 -0.004869 -0.076199
v 0.005479 -0.000060 -0.076238
v 0.003851 0.005560 -0.052220
v 0.003851 0.005047 -0.076467
v -0.000927 0.009325 -0.052622
v -0.000927 0.008571 -0.076869
v -0.000927 -0.008760 -0.051697
v -0.000927 -0.007941 -0.075944
vn 0.5977 0.0247 -0.8013
vn 0.9974 0.0720 -0.0033
vn 0.4757 -0.3522 -0.8060
vn 0.8309 -0.5558 -0.0247
vn 0.9983 0.0587 -0.0020
vn 0.8360 -0.5474 -0.0367
vn 0.7977 -0.5418 -0.2648
vn 0.9419 0.0375 -0.3339
vn 0.5079 -0.5512 -0.6620
vn 0.2540 -0.8038 -0.5379
vn 0.0667 -0.3760 0.9242
vn 0.4898 -0.5890 0.6428
vn 0.7696 0.0113 -0.6385
vn 0.8336 0.4608 -0.3046
vn 0.8616 0.5072 -0.0203
vn 0.8297 0.5577 -0.0229
vn 0.6515 0.0381 0.7577
vn 0.6380 0.5080 -0.5786
vn 0.6746 0.7104 -0.2007
vn 0.6796 0.7324 -0.0418
vn 0.6194 0.7842 -0.0386
vn 0.4638 0.2993 -0.8338
vn 0.2538 0.2372 -0.9377
vn 0.4624 0.7740 -0.4325
vn 0.5710 0.5462 0.6129
vn 0.2982 0.9245 0.2375
vn 0.1897 -0.4176 -0.8886
vn 0.5048 -0.8620 -0.0457
vn 0.5182 -0.8529 -0.0634
vn 0.5285 -0.8335 -0.1615
vn -0.5946 0.8036 -0.0250
vn -0.4638 0.2993 -0.8338
vn -0.6194 0.7842 -0.0386
vn -0.8297 0.5578 -0.0229
vn -0.6796 0.7324 -0.0418
vn -0.8616 0.5072 -0.0203
vn -0.6746 0.7104 -0.2007
vn -0.7977 -0.5418 -0.2648
vn -0.5079 -0.5512 -0.6620
vn -0.9419 0.0375 -0.3339
vn -0.9983 0.0588 -0.0020
vn -0.8336 0.4608 -0.3046
vn -0.9974 0.0720 -0.0033
vn -0.5977 0.0247 -0.8013
vn -0.4757 -0.3522 -0.8060
vn -0.8309 -0.5559 -0.0247
vn -0.8361 -0.5474 -0.0367
vn -0.5047 -0.8621 -0.0457
vn -0.4821 -0.8758 -0.0227
vn -0.7696 0.0113 -0.6385
vn -0.4898 -0.5890 0.6428
vn -0.1453 -0.7098 -0.6893
vn -0.2540 -0.8038 -0.5379
vn -0.5285 -0.8335 -0.1615
vn -0.5182 -0.8529 -0.0634
vn -0.6380 0.5080 -0.5787
vn -0.6515 0.0381 0.7577
vn -0.5710 0.5462 0.6129
vn -0.4624 0.7740 -0.4325
vn -0.4319 0.5915 -0.6808
vt 0.951660 0.089355
vt 0.938965 0.112305
vt 0.968262 0.007813
vt 0.902832 0.063965
vt 0.899414 0.041992
vt 0.900879 0.085938
vt 0.894531 0.106934
vt 0.894531 0.019531
vt 0.951660 0.089355
vt 0.985840 0.091797
vt 0.938965 0.112305
vt 0.968262 0.007813
vt 0.902832 0.063965
vt 0.899414 0.041992
vt 0.900879 0.085938
vt 0.894531 0.106934
vt 0.894531 0.019531
vt 0.953613 0.063965
vt 0.950684 0.038086
vt 0.980957 0.034180
vt 0.992188 0.063965
vt 0.985840 0.091797
vt 0.967285 0.119141
vt 0.938965 0.014648
vt 0.859863 0.063965
vt 0.860352 0.043457
vt 0.860840 0.083984
vt 0.856934 0.102539
vt 0.856934 0.024902
vt 0.821777 0.063965
vt 0.763184 0.063965
vt 0.763184 0.047852
vt 0.821777 0.045898
vt 0.821777 0.081543
vt 0.763184 0.079590
vt 0.818848 0.099121
vt 0.762207 0.095703
vt 0.762207 0.031738
vt 0.818848 0.027832
vt 0.953613 0.063965
vt 0.992188 0.063965
vt 0.980957 0.034180
vt 0.950684 0.038086
vt 0.967285 0.119141
vt 0.938965 0.014648
vt 0.860352 0.043457
vt 0.859863 0.063965
vt 0.860840 0.083984
vt 0.856934 0.102539
vt 0.856934 0.024902
vt 0.821777 0.063965
vt 0.821777 0.045898
vt 0.763184 0.047852
vt 0.763184 0.063965
vt 0.821777 0.081543
vt 0.763184 0.079590
vt 0.818848 0.099121
vt 0.762207 0.095703
vt 0.818848 0.027832
vt 0.762207 0.031738
s 1
usemtl 360_XOW_AMB_MON_BRO_B
f 54/54/1 51/51/2 53/53/3
f 52/52/4 53/53/3 51/51/2
f 51/51/2 47/47/5 52/52/4
f 46/46/6 52/52/4 47/47/5
f 46/46/6 47/47/5 14/14/7
f 13/13/8 14/14/7 47/47/5
f 14/14/7 13/13/8 43/43/9
f 43/43/9 45/45/10 14/14/7
f 45/45/10 43/43/9 12/12/11
f 42/42/12 12/12/11 43/43/9
f 43/43/9 40/40/13 42/42/12
f 40/40/13 43/43/9 13/13/8
f 13/13/8 15/15/14 40/40/13
f 13/13/8 47/47/5 15/15/14
f 48/48/15 15/15/14 47/47/5
f 47/47/5 51/51/2 48/48/15
f 55/55/16 48/48/15 51/51/2
f 41/41/17 42/42/12 40/40/13
f 40/40/13 9/9/18 41/41/17
f 9/9/18 40/40/13 15/15/14
f 15/15/14 16/16/19 9/9/18
f 15/15/14 48/48/15 16/16/19
f 49/49/20 16/16/19 48/48/15
f 48/48/15 55/55/16 49/49/20
f 57/57/21 49/49/20 55/55/16
f 55/55/16 56/56/22 57/57/21
f 58/58/23 57/57/21 56/56/22
f 11/11/24 9/9/18 16/16/19
f 9/9/18 11/11/24 10/10/25
f 10/10/25 41/41/17 9/9/18
f 44/44/26 10/10/25 11/11/24
f 51/51/2 54/54/1 55/55/16
f 56/56/22 55/55/16 54/54/1
f 53/53/3 52/52/4 60/60/27
f 59/59/28 60/60/27 52/52/4
f 52/52/4 46/46/6 59/59/28
f 50/50/29 59/59/28 46/46/6
f 46/46/6 14/14/7 50/50/29
f 17/17/30 50/50/29 14/14/7
f 17/17/30 14/14/7 45/45/10
f 37/37/31 35/35/32 36/36/33
f 34/34/34 36/36/33 35/35/32
f 36/36/33 34/34/34 28/28/35
f 27/27/36 28/28/35 34/34/34
f 28/28/35 27/27/36 7/7/37
f 5/5/38 19/19/39 4/4/40
f 4/4/40 25/25/41 5/5/38
f 4/4/40 6/6/42 25/25/41
f 27/27/36 25/25/41 6/6/42
f 25/25/41 27/27/36 30/30/43
f 34/34/34 30/30/43 27/27/36
f 30/30/43 34/34/34 31/31/44
f 35/35/32 31/31/44 34/34/34
f 31/31/44 32/32/45 30/30/43
f 33/33/46 30/30/43 32/32/45
f 30/30/43 33/33/46 25/25/41
f 26/26/47 25/25/41 33/33/46
f 26/26/47 5/5/38 25/25/41
f 39/39/48 33/33/46 38/38/49
f 32/32/45 38/38/49 33/33/46
f 18/18/50 4/4/40 19/19/39
f 19/19/39 20/20/51 18/18/50
f 20/20/51 19/19/39 3/3/52
f 24/24/53 3/3/52 19/19/39
f 19/19/39 5/5/38 24/24/53
f 8/8/54 24/24/53 5/5/38
f 8/8/54 5/5/38 29/29/55
f 26/26/47 29/29/55 5/5/38
f 29/29/55 26/26/47 39/39/48
f 33/33/46 39/39/48 26/26/47
f 4/4/40 18/18/50 6/6/42
f 6/6/42 7/7/37 27/27/36
f 6/6/42 1/1/56 7/7/37
f 1/1/56 6/6/42 18/18/50
f 18/18/50 21/21/57 1/1/56
f 21/21/57 18/18/50 20/20/51
f 22/22/58 1/1/56 21/21/57
f 1/1/56 22/22/58 2/2/59
f 2/2/59 7/7/37 1/1/56
f 23/23/60 2/2/59 22/22/58
f 42/42/12 10/10/25 22/22/58
f 32/32/45 35/35/32 56/56/22
f 22/22/58 21/21/57 20/20/51
f 20/20/51 12/12/11 42/42/12
f 42/42/12 41/41/17 10/10/25
f 10/10/25 44/44/26 22/22/58
f 22/22/58 20/20/51 42/42/12
f 56/56/22 54/54/1 53/53/3
f 53/53/3 60/60/27 32/32/45
f 32/32/45 31/31/44 35/35/32
f 35/35/32 58/58/23 56/56/22
f 56/56/22 53/53/3 32/32/45
