# Blender 3.5.1
# www.blender.org
mtllib cola3.mtl
o X360_XO-W_AMBIANT_Monkey.005
v -0.004399 -0.000468 0.016119
v -0.004244 -0.002976 0.016147
v -0.003215 0.002992 0.015953
v -0.000169 0.005808 0.015660
v -0.000169 -0.005056 0.016333
v 0.000260 -0.001389 -0.036809
v -0.000169 -0.002780 -0.033296
v -0.001735 -0.002121 -0.033613
v -0.001630 0.001323 -0.033662
v -0.000169 0.003026 -0.033413
v 0.000260 0.000812 -0.036945
v -0.002110 -0.000469 -0.033824
v 0.004490 -0.000039 0.016119
v 0.003906 -0.002976 0.016147
v 0.003306 0.003421 0.015953
v -0.000169 0.005808 0.015660
v -0.000169 -0.005056 0.016333
v -0.000169 -0.000960 -0.036809
v 0.001631 -0.001651 -0.033613
v -0.000169 -0.002780 -0.033296
v 0.001720 0.001753 -0.033663
v -0.000169 0.001242 -0.036945
v -0.000169 0.003026 -0.033413
v 0.002114 0.000038 -0.033824
v -0.005273 -0.000440 0.041091
v -0.004578 -0.003711 0.041124
v -0.003866 0.003412 0.040894
v 0.000260 0.006069 0.040546
v 0.000260 -0.006027 0.041345
v -0.003525 -0.000475 -0.008853
v -0.003480 -0.002446 -0.008733
v -0.002993 0.002696 -0.008855
v -0.000169 0.004616 -0.008817
v -0.000169 -0.004172 -0.008391
v 0.005099 -0.003711 0.041124
v 0.005792 -0.000440 0.041091
v 0.004387 0.003412 0.040894
v 0.000260 0.006069 0.040546
v 0.000260 -0.006027 0.041345
v 0.003142 -0.002446 -0.008733
v 0.003616 -0.000046 -0.008853
v 0.002655 0.002696 -0.008855
v -0.000169 0.004616 -0.008817
v -0.000169 -0.004172 -0.008391
vn 0.7960 -0.6036 -0.0462
vn 0.9969 0.0665 -0.0418
vn 0.4707 -0.3499 0.8100
vn 0.5170 0.0558 0.8542
vn 0.4584 -0.8878 -0.0404
vn 0.4919 -0.8459 -0.2059
vn 0.7984 -0.6000 -0.0506
vn 0.4520 -0.8911 -0.0400
vn 0.1620 -0.2475 0.9552
vn 0.4413 0.3823 0.8118
vn 0.7955 0.6050 -0.0341
vn 0.9965 0.0681 -0.0477
vn 0.7918 0.6091 -0.0463
vn 0.7830 0.5557 -0.2794
vn 0.9384 -0.0304 -0.3443
vn 0.7499 -0.5958 -0.2875
vn 0.5674 0.8229 -0.0295
vn 0.5613 0.8263 -0.0467
vn 0.5293 0.8243 -0.2008
vn 0.7942 0.1613 -0.5858
vn 0.7829 -0.2000 -0.5892
vn 0.2355 0.4752 0.8478
vn -0.8428 0.5363 -0.0452
vn -0.8347 0.4643 -0.2961
vn -0.9964 0.0715 -0.0458
vn -0.9346 0.0052 -0.3557
vn -0.7154 -0.6324 -0.2972
vn -0.8469 -0.5291 -0.0541
vn -0.9909 0.1314 -0.0285
vn -0.8363 -0.5473 -0.0319
vn -0.4669 -0.3477 0.8131
vn -0.5136 0.0567 0.8561
vn -0.4306 -0.9021 -0.0276
vn -0.4525 -0.8912 -0.0319
vn -0.4584 -0.8878 -0.0404
vn -0.3517 -0.9182 -0.1822
vn -0.7697 -0.1844 -0.6112
vn -0.7949 0.1286 -0.5930
vn -0.7142 0.6570 -0.2414
vn -0.5613 0.8263 -0.0467
vn -0.6763 0.7366 -0.0067
vn -0.8376 0.5460 -0.0191
vn -0.5511 0.8340 -0.0265
vn -0.4397 0.3832 0.8123
vt 0.444092 0.063965
vt 0.443848 0.054199
vt 0.443848 0.072754
vt 0.443115 0.082520
vt 0.442871 0.044922
vt 0.300537 0.061523
vt 0.316895 0.052734
vt 0.317627 0.058594
vt 0.317871 0.069336
vt 0.317139 0.074707
vt 0.300537 0.067871
vt 0.317871 0.063965
vt 0.444092 0.063965
vt 0.443848 0.054199
vt 0.443848 0.072754
vt 0.443115 0.082520
vt 0.442871 0.044922
vt 0.300537 0.061523
vt 0.317627 0.058594
vt 0.316895 0.052734
vt 0.317871 0.069336
vt 0.300537 0.067871
vt 0.317139 0.074707
vt 0.317871 0.063965
vt 0.515625 0.063965
vt 0.515137 0.052734
vt 0.515137 0.074707
vt 0.514160 0.085938
vt 0.513672 0.041016
vt 0.376221 0.063965
vt 0.375977 0.056152
vt 0.375977 0.071777
vt 0.375000 0.079590
vt 0.375000 0.048340
vt 0.515137 0.052734
vt 0.515625 0.063965
vt 0.515137 0.074707
vt 0.514160 0.085938
vt 0.513672 0.041016
vt 0.375977 0.056152
vt 0.376221 0.063965
vt 0.375977 0.071777
vt 0.375000 0.079590
vt 0.375000 0.048340
s 1
usemtl 360_XOW_AMB_MON_BRO_B
f 14/14/1 13/13/2 35/35/3
f 36/36/4 35/35/3 13/13/2
f 44/44/5 20/20/6 40/40/7
f 40/40/7 14/14/1 44/44/5
f 17/17/8 44/44/5 14/14/1
f 14/14/1 35/35/3 17/17/8
f 39/39/9 17/17/8 35/35/3
f 36/36/4 13/13/2 37/37/10
f 15/15/11 37/37/10 13/13/2
f 13/13/2 41/41/12 15/15/11
f 42/42/13 15/15/11 41/41/12
f 42/42/13 41/41/12 21/21/14
f 24/24/15 21/21/14 41/41/12
f 24/24/15 41/41/12 19/19/16
f 40/40/7 19/19/16 41/41/12
f 41/41/12 13/13/2 40/40/7
f 14/14/1 40/40/7 13/13/2
f 15/15/11 42/42/13 16/16/17
f 43/43/18 16/16/17 42/42/13
f 43/43/18 42/42/13 23/23/19
f 21/21/14 23/23/19 42/42/13
f 22/22/20 23/23/19 21/21/14
f 22/22/20 21/21/14 24/24/15
f 22/22/20 24/24/15 18/18/21
f 19/19/16 18/18/21 24/24/15
f 19/19/16 20/20/6 18/18/21
f 19/19/16 40/40/7 20/20/6
f 37/37/10 15/15/11 38/38/22
f 16/16/17 38/38/22 15/15/11
f 32/32/23 9/9/24 30/30/25
f 12/12/26 30/30/25 9/9/24
f 12/12/26 8/8/27 30/30/25
f 31/31/28 30/30/25 8/8/27
f 30/30/25 31/31/28 1/1/29
f 2/2/30 1/1/29 31/31/28
f 2/2/30 26/26/31 1/1/29
f 25/25/32 1/1/29 26/26/31
f 29/29/33 26/26/31 5/5/34
f 2/2/30 5/5/34 26/26/31
f 5/5/34 2/2/30 34/34/35
f 31/31/28 34/34/35 2/2/30
f 34/34/35 31/31/28 7/7/36
f 8/8/27 7/7/36 31/31/28
f 7/7/36 8/8/27 6/6/37
f 8/8/27 12/12/26 6/6/37
f 11/11/38 6/6/37 12/12/26
f 9/9/24 11/11/38 12/12/26
f 10/10/39 11/11/38 9/9/24
f 9/9/24 32/32/23 10/10/39
f 33/33/40 10/10/39 32/32/23
f 33/33/40 32/32/23 4/4/41
f 3/3/42 4/4/41 32/32/23
f 4/4/41 3/3/42 28/28/43
f 27/27/44 28/28/43 3/3/42
f 25/25/32 27/27/44 1/1/29
f 3/3/42 1/1/29 27/27/44
f 1/1/29 3/3/42 30/30/25
f 32/32/23 30/30/25 3/3/42
f 27/27/44 26/26/31 35/35/3
f 35/35/3 36/36/4 37/37/10
f 37/37/10 38/38/22 27/27/44
f 27/27/44 25/25/32 26/26/31
f 26/26/31 39/39/9 35/35/3
f 35/35/3 37/37/10 27/27/44
