# Blender 3.5.1
# www.blender.org
mtllib HombroDer.mtl
o X360_XO-W_AMBIANT_Monkey.003
v -0.043482 -0.092188 0.017710
v -0.034341 -0.104621 0.013496
v -0.057806 -0.080130 0.005858
v -0.051920 -0.083519 0.013386
v -0.035330 -0.118267 0.004113
v -0.000999 -0.046227 -0.003401
v -0.002816 -0.042796 0.013060
v -0.000999 -0.046227 -0.003401
v 0.000191 -0.033496 -0.015683
v 0.000191 -0.033496 -0.015683
v -0.005197 -0.021198 -0.016939
v -0.010401 -0.013070 -0.015010
v -0.005197 -0.021198 -0.016939
v -0.007738 -0.035711 0.022483
v -0.015121 -0.026303 0.024466
v -0.025090 -0.012342 0.016095
v -0.027146 -0.007790 0.002783
v -0.027146 -0.007790 0.002783
v -0.018490 -0.008317 -0.008349
v -0.018490 -0.008317 -0.008349
v -0.010401 -0.013070 -0.015010
v -0.018490 -0.008317 -0.008349
v -0.021463 -0.017966 0.020715
v -0.063628 -0.095992 -0.001259
v -0.056810 -0.094890 0.016654
v -0.063930 -0.092051 0.009007
v -0.047608 -0.102160 0.020514
v -0.045899 -0.096478 0.018252
v -0.037003 -0.109409 0.013536
v -0.035330 -0.118267 0.004113
v -0.060121 -0.086040 0.007637
v -0.053374 -0.089407 0.014293
v -0.005197 -0.021198 -0.016939
v -0.006245 -0.000774 -0.015987
v -0.006245 -0.000774 -0.015987
v -0.000638 -0.011779 -0.017961
v -0.005197 -0.021198 -0.016939
v 0.003952 -0.038345 -0.002944
v 0.004073 -0.029159 -0.016335
v -0.014862 0.005499 -0.009207
v 0.001500 -0.035163 0.014671
v -0.003648 -0.027176 0.024180
v -0.021472 0.002325 0.017155
v -0.017418 -0.005825 0.023027
v -0.011667 -0.015662 0.025869
v -0.023339 0.006374 0.002971
v -0.014862 0.005499 -0.009207
v -0.018490 -0.008317 -0.008349
v 0.003952 -0.038345 -0.002944
v -0.015873 0.016745 0.017155
v -0.018885 0.020614 0.002971
v -0.011350 0.005531 0.023027
v -0.005740 -0.005171 0.025869
v 0.000536 -0.019184 0.024180
v -0.010277 0.017951 -0.009207
v -0.010277 0.017951 -0.009207
v -0.010277 0.017951 -0.009207
v -0.003650 0.008392 -0.017271
v 0.001767 -0.007921 -0.019660
v 0.005920 -0.028122 -0.016335
v 0.005263 -0.031396 0.017153
v -0.011773 0.023740 0.017947
v -0.014758 0.028077 0.003230
v -0.006859 0.013664 0.025698
v -0.001270 0.002584 0.028232
v 0.004731 -0.014594 0.026682
v -0.010277 0.017951 -0.009207
v -0.018885 0.020614 0.002971
v -0.014758 0.028077 0.003230
v -0.014758 0.028077 0.003230
v -0.007478 0.023780 -0.009981
v -0.001204 0.014478 -0.018470
v 0.003932 -0.005634 -0.021895
v -0.007478 0.023780 -0.009981
v -0.014758 0.028077 0.003230
v 0.000223 0.032473 -0.009614
v -0.005425 0.038135 0.003599
v 0.002752 0.019732 -0.019830
v -0.003534 0.028153 -0.009981
v -0.006124 0.029867 0.017947
v -0.010578 0.033695 0.003431
v -0.036656 -0.108728 -0.007172
v -0.040283 -0.115934 -0.004884
v -0.049893 -0.107258 -0.010561
v -0.046630 -0.097868 -0.011789
v -0.032010 -0.101064 -0.008093
v -0.041959 -0.088484 -0.013236
v -0.054398 -0.089018 -0.011296
v -0.058215 -0.099102 -0.010480
v -0.028639 -0.105656 -0.001805
v -0.028703 -0.106264 0.005509
v -0.032508 -0.112461 0.002707
v -0.060501 -0.089999 -0.001869
v -0.057676 -0.082419 -0.003110
v -0.054398 -0.089018 -0.011296
v -0.058215 -0.099102 -0.010480
v -0.031680 -0.099832 0.013456
v -0.041100 -0.087066 0.017169
v -0.051696 -0.079142 -0.011728
v -0.055803 -0.074773 0.004819
v -0.055495 -0.075833 -0.004352
v -0.050109 -0.077758 0.013065
v -0.040283 -0.115934 -0.004884
v -0.036656 -0.108728 -0.007172
v -0.032508 -0.112461 0.002707
v -0.051696 -0.079142 -0.011728
v -0.028197 -0.090367 0.014494
v -0.037346 -0.078163 0.018007
v -0.046754 -0.068704 0.013160
v -0.051442 -0.065045 0.004404
v -0.050660 -0.065234 -0.004811
v -0.046973 -0.069291 -0.012102
v -0.024317 -0.096960 0.006994
v -0.024150 -0.096730 -0.002269
v -0.024150 -0.096730 -0.002269
v -0.026942 -0.091161 -0.008966
v -0.026942 -0.091161 -0.008966
v -0.037430 -0.080109 -0.013810
v -0.046973 -0.069291 -0.012102
v -0.046973 -0.069291 -0.012102
v -0.050660 -0.065234 -0.004811
v -0.046973 -0.069291 -0.012102
v -0.028639 -0.105656 -0.001805
v -0.032010 -0.101064 -0.008093
v 0.007095 -0.035565 -0.002944
v 0.007095 -0.035565 -0.002944
v 0.008434 -0.028604 -0.015614
v 0.009384 -0.034925 -0.003355
v 0.009384 -0.034925 -0.003355
v 0.007620 -0.029635 0.019044
v -0.001290 0.029867 0.017947
v -0.010578 0.033695 0.003431
v -0.001184 0.021274 0.027699
v 0.003322 0.008816 0.031586
v 0.008628 -0.012402 0.030563
v -0.010578 0.033695 0.003431
v -0.003534 0.028153 -0.009981
v -0.003534 0.028153 -0.009981
v 0.002752 0.011537 -0.011783
v 0.011247 -0.035687 -0.000122
v 0.011200 -0.028423 0.022498
v 0.036639 -0.029807 -0.002980
v 0.034876 -0.024517 0.019419
v 0.021132 0.034985 0.018322
v 0.026072 0.026393 0.028074
v 0.030578 0.013935 0.031961
v 0.031187 -0.000516 -0.021520
v 0.035690 -0.023486 -0.015239
v 0.035883 -0.007283 0.030938
v 0.030007 0.024850 -0.019455
v 0.027479 0.033798 -0.005513
v 0.032660 0.038389 0.008752
vn -0.5452 0.5294 -0.6500
vn -0.3223 0.6603 -0.6783
vn -0.4871 0.4854 -0.7260
vn -0.6584 0.7479 -0.0849
vn -0.3899 0.9187 -0.0634
vn -0.6129 0.6972 0.3719
vn -0.6680 0.5163 -0.5360
vn -0.6567 0.5259 -0.5406
vn -0.6308 0.5471 -0.5502
vn -0.6179 0.5572 -0.5547
vn 0.1891 -0.3824 -0.9045
vn -0.4063 -0.6383 -0.6538
vn 0.1974 -0.2862 -0.9376
vn 0.0187 -0.1508 -0.9884
vn 0.2063 -0.2227 -0.9528
vn 0.0334 -0.1186 -0.9924
vn 0.2277 -0.2050 -0.9519
vn 0.0358 -0.0897 -0.9953
vn 0.0678 -0.0946 -0.9932
vn 0.0121 -0.0596 -0.9981
vn -0.1445 0.0287 -0.9891
vn -0.1470 0.0143 -0.9890
vn -0.1360 -0.0437 -0.9897
vn -0.0647 -0.0561 -0.9963
vn -0.9143 0.2703 -0.3017
vn -0.8930 0.3196 -0.3170
vn -0.8294 0.2334 -0.5075
vn -0.8020 0.2626 -0.5365
vn -0.8545 0.3907 -0.3424
vn -0.7405 0.3538 -0.5713
vn -0.7265 0.3748 -0.5759
vn -0.8745 0.3893 0.2894
vn -0.8884 0.3788 0.2591
vn -0.8950 0.3801 0.2334
vn -0.9536 0.2989 -0.0375
vn -0.6101 0.2036 0.7657
vn -0.8252 0.2367 0.5129
vn -0.8120 0.2664 0.5193
vn -0.9408 0.2801 -0.1907
vn -0.7847 0.3198 0.5310
vn -0.9274 0.3740 -0.0063
vn -0.6380 0.5626 0.5257
vn -0.7282 0.5519 0.4064
vn -0.3117 0.7634 0.5657
vn -0.6748 0.4820 0.5589
vn -0.5630 0.1043 0.8198
vn -0.5101 0.1369 0.8492
vn -0.4998 0.1205 0.8577
vn -0.5638 0.1191 0.8173
vn -0.3366 0.4431 0.8309
vn -0.2563 0.0436 0.9656
vn -0.4458 -0.1009 0.8894
vn -0.2300 -0.0295 0.9728
vn -0.1747 -0.0150 0.9845
vn -0.2063 -0.0520 0.9771
vn -0.2342 -0.3429 0.9097
vn -0.3937 -0.3511 0.8496
vn 0.0503 -0.2717 0.9611
vn 0.2846 -0.2706 0.9197
vn 0.3600 -0.3086 0.8804
vn -0.1288 -0.0523 0.9903
vn 0.4407 -0.2692 0.8563
vn 0.7856 -0.4430 0.4319
vn 0.6193 -0.6335 0.4639
vn 0.3458 -0.7632 0.5459
vn -0.0277 -0.8098 0.5861
vn -0.3981 -0.6472 0.6501
vn -0.5423 -0.8252 0.1579
vn 0.1163 -0.9931 0.0151
vn 0.4728 -0.8521 0.2245
vn 0.7472 -0.6292 0.2143
vn 0.8735 -0.4519 0.1810
vn 0.8417 -0.4167 0.3434
vn 0.9017 -0.4323 0.0056
vn 0.8860 -0.4633 -0.0206
vn 0.8009 -0.5178 0.3006
vn 0.8141 -0.4577 0.3575
vn -0.1040 -0.8485 0.5189
vn 0.2383 -0.5988 0.7646
vn 0.5310 -0.3119 0.7879
vn 0.5044 -0.2777 0.8176
vn -0.0434 0.0128 0.9990
vn 0.0390 0.0866 0.9955
vn 0.1366 0.1928 0.9717
vn -0.1905 -0.4819 0.8553
vn -0.8109 0.4713 0.3468
vn -0.8707 0.3501 -0.3453
vn -0.9281 -0.0029 0.3722
vn -0.9548 -0.2404 -0.1749
vn -0.8638 -0.4075 -0.2963
vn -0.5909 -0.0969 0.8009
vn -0.3655 0.3712 0.8536
vn -0.4809 0.2456 0.8417
vn -0.5499 0.2090 0.8087
vn -0.5758 0.0596 -0.8154
vn 0.1478 0.3764 -0.9146
vn -0.5403 -0.1323 -0.8310
vn -0.3172 -0.0751 -0.9454
vn 0.2505 -0.4430 -0.8608
vn -0.4336 0.0075 -0.9011
vn -0.0709 -0.0780 -0.9944
vn 0.5761 -0.4970 -0.6489
vn 0.1909 -0.4737 -0.8597
vn 0.7001 -0.5727 -0.4266
vn -0.2729 0.0239 -0.9617
vn 0.3572 0.3370 -0.8711
vn -0.0405 0.5220 -0.8520
vn -0.6344 0.3215 -0.7030
vn -0.6986 0.2274 -0.6784
vn -0.7877 0.3072 -0.5340
vn 0.1050 -0.6537 -0.7495
vn 0.4152 -0.7855 -0.4589
vn 0.1608 -0.8721 -0.4621
vn -0.2161 -0.9674 -0.1319
vn 0.6444 -0.5315 -0.5498
vn 0.7158 -0.4896 -0.4979
vn 0.6834 -0.5402 -0.4910
vn 0.6286 -0.5017 -0.5943
vn 0.6515 -0.4104 -0.6381
vn 0.6956 -0.3746 -0.6131
vn 0.7197 -0.3726 -0.5859
vn 0.8098 -0.4380 -0.3903
vn -0.7547 0.2779 -0.5943
vn -0.7860 0.2229 -0.5767
vn -0.7847 0.1946 -0.5886
vn -0.7011 0.4080 -0.5848
vn -0.4489 0.1349 -0.8833
vn -0.5037 0.2855 -0.8154
vn -0.5457 0.1942 -0.8152
vn -0.5279 0.1213 -0.8406
vn -0.3079 0.0285 -0.9510
vn -0.5402 0.1526 -0.8276
vn -0.5176 0.1906 -0.8341
vn -0.7238 0.3730 -0.5805
vn -0.2176 0.0913 -0.9718
vn 0.6427 0.2514 0.7237
vn 0.7529 -0.6505 -0.0999
vn 0.6493 0.7087 -0.2760
vn 0.1698 -0.8705 -0.4620
vn 0.6028 0.0911 -0.7927
vn 0.7209 -0.3555 -0.5949
vn -0.2986 0.0626 -0.9523
vn 0.6017 0.5866 0.5421
vn 0.6216 -0.6274 0.4690
vn 0.3300 0.8016 0.4985
vn -0.0451 0.9571 0.2861
vn 0.0932 -0.5570 0.8252
vn 0.7379 -0.0974 0.6678
vn 0.5964 0.3773 -0.7085
vn 0.9393 0.2687 0.2133
vn 0.0394 0.8442 -0.5346
vn -0.1970 0.8238 0.5315
vt 0.765137 0.334473
vt 0.770508 0.370605
vt 0.761719 0.275391
vt 0.762207 0.303711
vt 0.807129 0.131836
vt 0.638672 0.422363
vt 0.635254 0.389160
vt 0.635742 0.109863
vt 0.625488 0.143555
vt 0.625488 0.143555
vt 0.620605 0.173340
vt 0.619629 0.198730
vt 0.620605 0.173340
vt 0.632324 0.361328
vt 0.630371 0.334473
vt 0.624512 0.287598
vt 0.622559 0.256836
vt 0.622559 0.256836
vt 0.620117 0.226563
vt 0.620117 0.226563
vt 0.619629 0.198730
vt 0.620117 0.226563
vt 0.627441 0.309082
vt 0.792480 0.251953
vt 0.791016 0.306152
vt 0.789551 0.279297
vt 0.795898 0.334961
vt 0.779785 0.334473
vt 0.788574 0.370117
vt 0.798340 0.402344
vt 0.774902 0.277832
vt 0.775391 0.305664
vt 0.620605 0.173340
vt 0.591797 0.198242
vt 0.591797 0.198242
vt 0.595703 0.171387
vt 0.620605 0.173340
vt 0.609863 0.107910
vt 0.604980 0.138672
vt 0.590332 0.225098
vt 0.611328 0.389160
vt 0.607910 0.361816
vt 0.594238 0.286133
vt 0.598145 0.309570
vt 0.603516 0.334473
vt 0.591797 0.255371
vt 0.590332 0.225098
vt 0.620117 0.226563
vt 0.613281 0.422852
vt 0.562012 0.285156
vt 0.560547 0.255371
vt 0.569336 0.310547
vt 0.575684 0.334961
vt 0.584473 0.363281
vt 0.561523 0.225586
vt 0.561523 0.225586
vt 0.561523 0.225586
vt 0.568848 0.198730
vt 0.579102 0.168457
vt 0.591797 0.134766
vt 0.592285 0.390137
vt 0.540039 0.285645
vt 0.538086 0.255371
vt 0.545410 0.311523
vt 0.552246 0.335938
vt 0.564941 0.365234
vt 0.561523 0.225586
vt 0.560547 0.255371
vt 0.538086 0.255371
vt 0.538086 0.255371
vt 0.541992 0.225586
vt 0.549805 0.199219
vt 0.563477 0.165527
vt 0.541992 0.225586
vt 0.538086 0.255371
vt 0.205444 0.585449
vt 0.000000 0.000000
vt 0.232056 0.597412
vt 0.000000 0.000000
vt 0.191895 0.547852
vt 0.206055 0.569092
vt 0.256104 0.572510
vt 0.231567 0.577637
vt 0.778809 0.155762
vt 0.798828 0.159668
vt 0.790039 0.191406
vt 0.000000 0.000000
vt 0.771484 0.189453
vt 0.758301 0.150391
vt 0.750488 0.186523
vt 0.767090 0.219238
vt 0.784668 0.220215
vt 0.760742 0.417480
vt 0.757324 0.396484
vt 0.774902 0.404297
vt 0.778320 0.250488
vt 0.763184 0.248047
vt 0.767090 0.219238
vt 0.784668 0.220215
vt 0.753906 0.368652
vt 0.748535 0.333496
vt 0.747559 0.218750
vt 0.745605 0.272949
vt 0.746582 0.245605
vt 0.745117 0.301758
vt 0.798828 0.159668
vt 0.000000 0.000000
vt 0.778809 0.155762
vt 0.786621 0.126953
vt 0.747559 0.218750
vt 0.729980 0.366699
vt 0.725586 0.333008
vt 0.721191 0.299805
vt 0.723145 0.270508
vt 0.724609 0.243164
vt 0.726563 0.216309
vt 0.732910 0.395020
vt 0.735840 0.420898
vt 0.736816 0.119629
vt 0.732910 0.147461
vt 0.732910 0.147461
vt 0.729980 0.183105
vt 0.726563 0.216309
vt 0.726563 0.216309
vt 0.724609 0.243164
vt 0.726563 0.216309
vt 0.763672 0.123535
vt 0.758301 0.150391
vt 0.595215 0.105957
vt 0.598633 0.425293
vt 0.000000 0.000000
vt 0.580078 0.129395
vt 0.586426 0.104004
vt 0.000000 0.000000
vt 0.590332 0.427734
vt 0.578613 0.392090
vt 0.000000 0.000000
vt 0.516602 0.286133
vt 0.000000 0.000000
vt 0.517090 0.255371
vt 0.520508 0.313477
vt 0.529785 0.338379
vt 0.547363 0.370605
vt 0.000000 0.000000
vt 0.517090 0.255371
vt 0.521973 0.224609
vt 0.521973 0.224609
vt 0.000000 0.000000
vt 0.529785 0.198242
vt 0.581543 0.430664
vt 0.563965 0.396973
vt 0.000000 0.000000
vt 0.590332 0.427734
vt 0.578613 0.392090
vt 0.000000 0.000000
vt 0.516602 0.286133
vt 0.000000 0.000000
vt 0.520508 0.313477
vt 0.529785 0.338379
vt 0.563477 0.165527
vt 0.580078 0.129395
vt 0.000000 0.000000
vt 0.000000 0.000000
vt 0.547363 0.370605
vt 0.529785 0.198242
vt 0.000000 0.000000
vt 0.000000 0.000000
vt 0.205444 0.585449
vt 0.000000 0.000000
vt 0.232056 0.597412
s 1
usemtl 360_XOW_AMB_MON_BRO_B
f 79/81/1 76/76/2 78/80/3
f 79/81/1 81/83/4 76/76/2
f 77/78/5 76/76/2 81/83/4
f 81/83/4 80/82/6 77/78/5
f 75/75/7 136/145/8 74/74/9
f 137/146/10 74/74/9 136/145/8
f 83/85/11 84/86/12 82/84/13
f 85/88/14 82/84/13 84/86/12
f 82/84/13 85/88/14 86/89/15
f 87/90/16 86/89/15 85/88/14
f 86/89/15 87/90/16 117/121/17
f 118/122/18 117/121/17 87/90/16
f 117/121/17 118/122/18 10/10/19
f 11/11/20 10/10/19 118/122/18
f 118/122/18 119/123/21 11/11/20
f 119/123/21 118/122/18 99/102/22
f 87/90/16 99/102/22 118/122/18
f 99/102/22 87/90/16 88/91/23
f 85/88/14 88/91/23 87/90/16
f 85/88/14 84/86/12 88/91/23
f 89/92/24 88/91/23 84/86/12
f 94/97/25 101/104/26 95/98/27
f 106/110/28 95/98/27 101/104/26
f 101/104/26 111/115/29 106/110/28
f 112/116/30 106/110/28 111/115/29
f 111/115/29 22/22/31 112/116/30
f 3/3/32 100/103/33 94/97/25
f 101/104/26 94/97/25 100/103/33
f 100/103/33 110/114/34 101/104/26
f 111/115/29 101/104/26 110/114/34
f 110/114/34 17/17/35 111/115/29
f 110/114/34 100/103/33 109/113/36
f 109/113/36 16/16/37 110/114/34
f 17/17/35 110/114/34 16/16/37
f 16/16/37 43/43/38 17/17/35
f 46/46/39 17/17/35 43/43/38
f 43/43/38 50/50/40 46/46/39
f 51/51/41 46/46/39 50/50/40
f 50/50/40 62/62/42 51/51/41
f 63/63/43 51/51/41 62/62/42
f 62/62/42 131/138/44 63/63/43
f 132/140/45 63/63/43 131/138/44
f 23/23/46 16/16/37 109/113/36
f 16/16/37 23/23/46 43/43/38
f 44/44/47 43/43/38 23/23/46
f 44/44/47 52/52/48 43/43/38
f 50/50/40 43/43/38 52/52/48
f 52/52/48 64/64/49 50/50/40
f 62/62/42 50/50/40 64/64/49
f 131/138/44 62/62/42 133/141/50
f 64/64/49 133/141/50 62/62/42
f 133/141/50 64/64/49 134/142/51
f 65/65/52 134/142/51 64/64/49
f 64/64/49 52/52/48 65/65/52
f 53/53/53 65/65/52 52/52/48
f 52/52/48 44/44/47 53/53/53
f 45/45/54 53/53/53 44/44/47
f 44/44/47 23/23/46 45/45/54
f 15/15/55 45/45/54 23/23/46
f 134/142/51 65/65/52 135/143/56
f 66/66/57 135/143/56 65/65/52
f 65/65/52 53/53/53 66/66/57
f 54/54/58 66/66/57 53/53/53
f 53/53/53 45/45/54 54/54/58
f 42/42/59 54/54/58 45/45/54
f 45/45/54 15/15/55 42/42/59
f 14/14/60 42/42/59 15/15/55
f 15/15/55 108/112/61 14/14/60
f 107/111/62 14/14/60 108/112/61
f 7/7/63 41/41/64 14/14/60
f 42/42/59 14/14/60 41/41/64
f 41/41/64 61/61/65 42/42/59
f 54/54/58 42/42/59 61/61/65
f 61/61/65 130/136/66 54/54/58
f 66/66/57 54/54/58 130/136/66
f 130/136/66 141/151/67 66/66/57
f 135/143/56 66/66/57 141/151/67
f 141/151/67 130/136/66 140/150/68
f 129/135/69 140/150/68 130/136/66
f 130/136/66 61/61/65 129/135/69
f 126/130/70 129/135/69 61/61/65
f 61/61/65 41/41/64 126/130/70
f 49/49/71 126/130/70 41/41/64
f 41/41/64 7/7/63 49/49/71
f 6/6/72 49/49/71 7/7/63
f 7/7/63 113/117/73 6/6/72
f 114/118/74 6/6/72 113/117/73
f 114/118/74 113/117/73 90/93/75
f 91/94/76 90/93/75 113/117/73
f 91/94/76 92/95/77 90/93/75
f 30/30/78 92/95/77 29/29/79
f 2/2/80 29/29/79 92/95/77
f 92/95/77 91/94/76 2/2/80
f 97/100/81 2/2/80 91/94/76
f 91/94/76 113/117/73 97/100/81
f 107/111/62 97/100/81 113/117/73
f 113/117/73 7/7/63 107/111/62
f 14/14/60 107/111/62 7/7/63
f 108/112/61 98/101/82 107/111/62
f 97/100/81 107/111/62 98/101/82
f 98/101/82 1/1/83 97/100/81
f 2/2/80 97/100/81 1/1/83
f 1/1/83 28/28/84 2/2/80
f 29/29/79 2/2/80 28/28/84
f 28/28/84 27/27/85 29/29/79
f 31/31/86 93/96/87 26/26/88
f 24/24/89 26/26/88 93/96/87
f 93/96/87 96/99/90 24/24/89
f 96/99/90 93/96/87 95/98/27
f 94/97/25 95/98/27 93/96/87
f 93/96/87 31/31/86 94/97/25
f 3/3/32 94/97/25 31/31/86
f 25/25/91 32/32/92 26/26/88
f 31/31/86 26/26/88 32/32/92
f 32/32/92 4/4/93 31/31/86
f 3/3/32 31/31/86 4/4/93
f 4/4/93 102/105/94 3/3/32
f 100/103/33 3/3/32 102/105/94
f 102/105/94 109/113/36 100/103/33
f 23/23/46 109/113/36 15/15/55
f 108/112/61 15/15/55 109/113/36
f 109/113/36 102/105/94 108/112/61
f 98/101/82 108/112/61 102/105/94
f 102/105/94 4/4/93 98/101/82
f 1/1/83 98/101/82 4/4/93
f 4/4/93 32/32/92 1/1/83
f 28/28/84 1/1/83 32/32/92
f 32/32/92 25/25/91 28/28/84
f 27/27/85 28/28/84 25/25/91
f 58/58/95 72/72/96 59/59/97
f 59/59/97 36/36/98 58/58/95
f 36/36/98 59/59/97 39/39/99
f 35/35/100 58/58/95 36/36/98
f 36/36/98 37/37/101 35/35/100
f 36/36/98 39/39/99 37/37/101
f 9/9/102 37/37/101 39/39/99
f 39/39/99 60/60/103 38/38/104
f 60/60/103 39/39/99 59/59/97
f 59/59/97 73/73/105 60/60/103
f 73/73/105 59/59/97 72/72/96
f 72/72/96 139/149/106 73/73/105
f 139/149/106 72/72/96 138/147/107
f 71/71/108 138/147/107 72/72/96
f 72/72/96 58/58/95 71/71/108
f 57/57/109 71/71/108 58/58/95
f 58/58/95 35/35/100 57/57/109
f 71/71/108 57/57/109 70/70/110
f 127/132/111 60/60/103 73/73/105
f 60/60/103 127/132/111 125/129/112
f 125/129/112 38/38/104 60/60/103
f 128/133/113 125/129/112 127/132/111
f 103/106/114 104/108/115 5/5/116
f 105/109/117 5/5/116 104/108/115
f 105/109/117 104/108/115 123/127/118
f 124/128/119 123/127/118 104/108/115
f 123/127/118 124/128/119 115/119/120
f 116/120/121 115/119/120 124/128/119
f 115/119/120 116/120/121 8/8/122
f 9/9/102 8/8/122 116/120/121
f 8/8/122 9/9/102 38/38/104
f 39/39/99 38/38/104 9/9/102
f 55/55/123 47/47/124 51/51/41
f 46/46/39 51/51/41 47/47/124
f 47/47/124 48/48/125 46/46/39
f 17/17/35 46/46/39 48/48/125
f 68/68/126 69/69/126 67/67/126
f 21/21/127 122/126/128 20/20/129
f 21/21/127 34/34/130 33/33/131
f 21/21/127 20/20/129 34/34/130
f 40/40/132 34/34/130 20/20/129
f 40/40/132 56/56/133 34/34/130
f 19/19/134 121/125/134 18/18/134
f 12/12/135 13/13/135 120/124/135
f 135/143/56 146/159/136 134/142/51
f 25/25/91 24/24/89 30/30/78
f 30/30/78 84/87/12 103/107/114
f 142/153/137 151/168/138 146/159/136
s 0
f 127/131/139 142/152/139 129/134/139
s 1
f 127/132/111 147/160/140 148/161/141
f 139/149/106 147/160/140 73/73/105
s 0
f 76/77/142 150/166/142 139/148/142
s 1
f 134/142/51 145/158/143 133/141/50
f 77/78/5 151/168/138 76/76/2
f 129/135/69 143/154/144 130/136/66
f 133/141/50 144/156/145 131/138/44
s 0
f 77/79/146 144/157/146 152/169/146
f 135/144/147 143/155/147 149/163/147
s 1
f 135/143/56 149/164/148 146/159/136
f 29/29/79 27/27/85 25/25/91
f 25/25/91 26/26/88 24/24/89
f 24/24/89 96/99/90 30/30/78
f 30/30/78 29/29/79 25/25/91
f 30/30/78 96/99/90 84/87/12
f 149/164/148 143/154/144 142/153/137
f 142/153/137 148/161/141 147/160/140
f 147/160/140 150/165/149 151/168/138
f 151/168/138 152/170/150 144/156/145
f 144/156/145 145/158/143 146/159/136
f 146/159/136 149/164/148 142/153/137
f 142/153/137 147/160/140 151/168/138
f 151/168/138 144/156/145 146/159/136
s 0
f 127/131/139 148/162/139 142/152/139
s 1
f 127/132/111 73/73/105 147/160/140
f 139/149/106 150/165/149 147/160/140
s 0
f 76/77/151 151/167/151 150/166/151
s 1
f 134/142/51 146/159/136 145/158/143
f 77/78/5 152/170/150 151/168/138
f 129/135/69 142/153/137 143/154/144
f 133/141/50 145/158/143 144/156/145
s 0
f 77/79/152 131/139/152 144/157/152
f 135/144/147 130/137/147 143/155/147
l 129 131
