# 3ds Max Wavefront OBJ Exporter v0.99 - (c)2007 guruware
# File Created: 24.05.2023 09:33:49

mtllib pataTraseraIzqLeona.mtl

#
# object piernaDelanteraIzqLeona
#

#
# object piernaTraseraDerLeona
#

#
# object piernaTraseraIzqLeona
#

v  0.2782 -0.8549 -0.2400
v  0.3799 -1.3941 -0.2607
v  0.1210 -1.3952 -0.2171
v  0.0959 -0.8645 -0.2036
v  0.3143 -0.9191 -0.0571
v  0.4539 -1.4010 0.0041
v  0.1954 -0.9411 -0.0211
v  0.2284 -1.4044 0.1338
v  0.0959 -0.8748 -0.2036
v  0.2083 -0.8380 -0.2816
v  0.2284 -1.1123 -0.3276
v  0.1415 -1.1332 -0.2024
v  0.1237 -0.8996 -0.1715
v  0.2864 -0.8640 -0.1897
v  0.3329 -1.1393 -0.2279
v  0.3132 -0.9300 -0.0970
v  0.3641 -1.1441 -0.0873
v  0.2220 -1.1559 -0.0417
v  0.2042 -0.9361 -0.0615
v  0.1237 -0.9099 -0.1715
v  0.2397 -1.3822 -0.2625
v  0.1274 -1.3969 -0.1511
v  0.4287 -1.3964 -0.1723
v  0.4714 -1.2460 -0.0104
v  0.2277 -1.2447 0.0929
v  0.2379 -1.4049 0.1551
v  0.4968 -1.4017 0.0308
v  0.2130 -0.8380 -0.2816
v  0.3132 -0.9197 -0.0970
v  0.2138 -0.9361 -0.0615
v  0.2389 -1.2862 -0.2998
v  0.1321 -1.2632 -0.1628
v  0.4069 -1.2700 -0.1993
# 33 vertices

vn 0.5336 0.2384 -0.8114
vn 0.5084 -0.5081 -0.6952
vn -0.7040 -0.5623 -0.4338
vn -0.8078 -0.0819 -0.5837
vn 0.9320 0.0689 0.3557
vn 0.8135 -0.4789 0.3300
vn -0.4833 -0.3508 0.8021
vn -0.2727 -0.4871 0.8297
vn -0.0240 0.3530 -0.9353
vn -0.0923 0.0386 -0.9950
vn -0.9871 -0.0124 -0.1595
vn -0.9891 -0.0933 -0.1139
vn 0.8678 0.2751 -0.4139
vn 0.8227 0.2260 -0.5215
vn 0.9365 -0.0088 0.3505
vn 0.6857 0.6126 0.3931
vn -0.3679 0.5511 0.7490
vn -0.4163 -0.4200 0.8064
vn -0.1506 -0.6197 -0.7703
vn -0.7853 -0.6003 -0.1513
vn 0.6295 -0.5938 -0.5011
vn 0.8124 0.4990 0.3017
vn -0.3697 0.5147 0.7736
vn -0.2753 -0.4601 0.8441
vn 0.7784 -0.4875 0.3955
vn -0.0267 0.4420 -0.8966
vn -0.0768 0.0364 -0.9964
vn -0.9911 -0.0059 -0.1333
vn -0.9900 -0.0801 -0.1161
vn 0.8690 0.2808 -0.4075
vn 0.8112 0.2052 -0.5476
vn 0.9420 -0.0114 0.3353
vn 0.7434 0.5687 0.3520
vn -0.4838 0.4624 0.7430
vn -0.3796 -0.4185 0.8251
vn -0.1210 -0.1949 -0.9733
vn -0.9929 0.0667 -0.0980
vn 0.7640 0.1556 -0.6261
vn 0.8049 0.5060 0.3101
vn -0.3736 0.5228 0.7662
vn -0.0953 -0.6720 -0.7344
vn -0.7802 -0.6101 -0.1382
vn 0.6047 -0.6236 -0.4954
# 43 vertex normals

vt 0.1563 0.4961 0.0000
vt 0.0720 0.2408 0.0000
vt 0.0039 0.2465 0.0000
vt 0.0195 0.5293 0.0000
vt 0.2049 0.4706 0.0000
vt 0.1506 0.2294 0.0000
vt 0.2539 0.4492 0.0000
vt 0.2238 0.2285 0.0000
vt 0.3223 0.4160 0.0000
vt 0.2980 0.2323 0.0000
vt 0.1525 0.1535 0.0000
vt 0.0654 0.1782 0.0000
vt 0.0703 0.4570 0.0000
vt 0.0552 0.3310 0.0000
vt 0.0039 0.3338 0.0000
vt 0.0078 0.4688 0.0000
vt 0.1211 0.4531 0.0000
vt 0.1069 0.3302 0.0000
vt 0.1676 0.4256 0.0000
vt 0.1593 0.3290 0.0000
vt 0.2210 0.3307 0.0000
vt 0.2227 0.4023 0.0000
vt 0.2891 0.3318 0.0000
vt 0.2891 0.3789 0.0000
vt 0.0505 0.2338 0.0000
vt 0.0966 0.2399 0.0000
vt 0.1586 0.2733 0.0000
vt 0.2193 0.2709 0.0000
vt 0.2170 0.2285 0.0000
vt 0.1552 0.2294 0.0000
vt 0.0519 0.2768 0.0000
vt 0.0039 0.2778 0.0000
vt 0.1020 0.2755 0.0000
vt 0.2919 0.2825 0.0000
# 34 texture coords

o piernaTraseraIzqLeona
g piernaTraseraIzqLeona
usemtl 07___Default
s 1
f 1/1/1 2/2/2 3/3/3 
f 3/3/3 4/4/4 1/1/1 
f 5/5/5 6/6/6 2/2/2 
f 2/2/2 1/1/1 5/5/5 
f 5/5/5 7/7/7 8/8/8 
f 8/8/8 6/6/6 5/5/5 
f 7/7/7 9/9/4 3/10/3 
f 3/10/3 8/8/8 7/7/7 
f 2/2/2 6/6/6 8/11/8 
f 8/11/8 3/12/3 2/2/2 
f 10/13/9 11/14/10 12/15/11 
f 12/15/11 13/16/12 10/13/9 
f 11/14/10 10/13/9 14/17/13 
f 14/17/13 15/18/14 11/14/10 
f 16/19/15 17/20/16 15/18/14 
f 15/18/14 14/17/13 16/19/15 
f 18/21/17 17/20/16 16/19/15 
f 16/19/15 19/22/18 18/21/17 
f 12/23/11 18/21/17 19/22/18 
f 19/22/18 20/24/12 12/23/11 
f 21/25/19 22/3/20 12/15/11 
f 12/15/11 11/14/10 21/25/19 
f 23/26/21 21/25/19 11/14/10 
f 11/14/10 15/18/14 23/26/21 
f 24/27/22 23/26/21 15/18/14 
f 15/18/14 17/20/16 24/27/22 
f 18/21/17 25/28/23 24/27/22 
f 24/27/22 17/20/16 18/21/17 
f 25/28/23 22/10/20 26/29/24 
f 25/28/23 26/29/24 27/30/25 
f 27/30/25 24/27/22 25/28/23 
f 23/26/21 27/30/25 26/11/24 
f 26/11/24 22/12/20 23/26/21 
f 22/12/20 21/25/19 23/26/21 
f 23/26/21 24/27/22 27/30/25 
f 12/23/11 22/10/20 25/28/23 
f 25/28/23 18/21/17 12/23/11 
f 28/13/26 11/14/27 12/15/28 
f 28/13/26 12/15/28 20/16/29 
f 11/14/27 28/13/26 14/17/30 
f 11/14/27 14/17/30 15/18/31 
f 29/19/32 17/20/33 15/18/31 
f 29/19/32 15/18/31 14/17/30 
f 18/21/34 17/20/33 29/19/32 
f 18/21/34 29/19/32 30/22/35 
f 12/23/28 18/21/34 30/22/35 
f 12/23/28 30/22/35 20/24/29 
f 31/31/36 32/32/37 12/15/28 
f 31/31/36 12/15/28 11/14/27 
f 15/18/31 33/33/38 31/31/36 
f 15/18/31 31/31/36 11/14/27 
f 17/20/33 24/27/39 33/33/38 
f 17/20/33 33/33/38 15/18/31 
f 18/21/34 25/28/40 24/27/39 
f 18/21/34 24/27/39 17/20/33 
f 18/21/34 12/23/28 32/34/37 
f 18/21/34 32/34/37 25/28/40 
f 31/31/36 21/25/41 22/3/42 
f 31/31/36 22/3/42 32/32/37 
f 33/33/38 23/26/43 21/25/41 
f 33/33/38 21/25/41 31/31/36 
f 24/27/39 27/30/25 23/26/43 
f 24/27/39 23/26/43 33/33/38 
f 25/28/40 26/29/24 27/30/25 
f 25/28/40 27/30/25 24/27/39 
f 25/28/40 32/34/37 22/10/42 
f 25/28/40 22/10/42 26/29/24 
f 23/26/43 27/30/25 26/11/24 
f 23/26/43 26/11/24 22/12/42 
f 22/12/42 21/25/41 23/26/43 
# 70 faces

