# 3ds Max Wavefront OBJ Exporter v0.99 - (c)2007 guruware
# File Created: 24.05.2023 09:24:55

mtllib pataDelanteraIzqLeona.mtl

#
# object piernaDelanteraIzqLeona
#

v  0.3796 -0.9967 -0.0464
v  0.1361 -0.9978 -0.0035
v  0.1623 -0.7006 -0.1489
v  0.3159 -0.7006 -0.1496
v  0.3520 -0.7074 0.0796
v  0.4622 -1.0040 0.2363
v  0.1633 -1.0060 0.3106
v  0.1680 -0.7054 0.1111
v  0.1726 -0.7621 0.1273
v  0.1635 -0.6488 0.0949
v  0.3433 -0.6479 0.0634
v  0.3607 -0.7668 0.0957
v  0.1684 -0.8568 0.2678
v  0.4194 -0.8706 0.1854
v  0.1458 -0.7569 -0.0210
v  0.1370 -0.6685 -0.0388
v  0.1753 -0.6760 -0.1535
v  0.1777 -0.7252 -0.1443
v  0.2884 -0.6760 -0.1540
v  0.2851 -0.7251 -0.1451
v  0.3352 -0.6681 -0.0396
v  0.3303 -0.7564 -0.0420
v  0.1867 -0.7621 0.1273
v  0.3280 -0.7668 0.0957
v  0.3142 -0.6479 0.0634
v  0.1776 -0.6488 0.0949
v  0.3332 -0.8862 -0.1223
v  0.1834 -0.8828 -0.1112
v  0.1364 -0.8731 -0.0242
v  0.3790 -0.8845 -0.0351
v  0.3919 -0.9978 -0.0044
# 31 vertices

vn 0.5527 -0.6029 -0.5754
vn -0.6849 -0.6344 -0.3583
vn -0.6179 -0.2982 -0.7275
vn 0.6199 -0.1114 -0.7767
vn 0.8599 0.2308 0.4553
vn 0.7643 -0.3801 0.5210
vn -0.4530 -0.3899 0.8017
vn -0.6992 0.0398 0.7138
vn -0.6715 -0.1717 -0.7209
vn -0.6733 0.4471 0.5888
vn -0.7028 -0.0678 0.7081
vn 0.6042 -0.0869 -0.7921
vn 0.8554 0.0762 0.5124
vn 0.6940 0.5563 0.4571
vn 0.5408 -0.6154 -0.5735
vn -0.6895 -0.6289 -0.3594
vn -0.4982 0.5141 0.6983
vn 0.7610 0.5218 0.3855
vn -0.4696 -0.4860 0.7371
vn 0.7725 -0.4265 0.4704
vn -0.9995 -0.0296 -0.0125
vn -0.9942 -0.0982 -0.0434
vn -0.5792 -0.1234 -0.8058
vn -0.5963 -0.1803 -0.7823
vn 0.5522 -0.1147 -0.8258
vn 0.5080 -0.1093 -0.8544
vn 0.9946 -0.0471 -0.0920
vn 0.9708 0.1674 -0.1718
vn -0.5676 0.4967 0.6567
vn 0.6877 0.5617 0.4599
vn 0.7679 0.0378 0.6395
vn -0.5452 -0.0301 0.8378
vn 0.4791 -0.2469 -0.8423
vn -0.5003 -0.3245 -0.8027
vn -0.9802 0.0523 -0.1912
vn 0.9305 0.2000 -0.3068
vn 0.7521 0.5543 0.3563
vn -0.4932 0.5172 0.6995
vn 0.7725 -0.4265 0.4705
vn 0.6159 -0.6722 -0.4109
vn -0.4653 -0.4872 0.7390
vn -0.6674 -0.6771 -0.3100
# 42 vertex normals

vt 0.6738 0.2380 0.0000
vt 0.5923 0.2479 0.0000
vt 0.6238 0.3628 0.0000
vt 0.6609 0.3591 0.0000
vt 0.7598 0.3492 0.0000
vt 0.7593 0.2364 0.0000
vt 0.8239 0.2336 0.0000
vt 0.8104 0.3458 0.0000
vt 0.6602 0.1680 0.0000
vt 0.5703 0.1719 0.0000
vt 0.8051 0.3219 0.0000
vt 0.8158 0.3697 0.0000
vt 0.7578 0.3750 0.0000
vt 0.7617 0.3234 0.0000
vt 0.6741 0.2380 0.0000
vt 0.6735 0.2380 0.0000
vt 0.8224 0.2808 0.0000
vt 0.7625 0.2813 0.0000
vt 0.5781 0.3460 0.0000
vt 0.5859 0.3984 0.0000
vt 0.6250 0.3867 0.0000
vt 0.6225 0.3388 0.0000
vt 0.6602 0.3828 0.0000
vt 0.6616 0.3353 0.0000
vt 0.7070 0.3789 0.0000
vt 0.7070 0.3308 0.0000
vt 0.8183 0.3271 0.0000
vt 0.6548 0.2860 0.0000
vt 0.6133 0.2895 0.0000
vt 0.5781 0.2973 0.0000
vt 0.7017 0.2821 0.0000
vt 0.8991 0.2780 0.0000
vt 0.8662 0.3242 0.0000
vt 0.6906 0.2401 0.0000
vt 0.8993 0.2282 0.0000
vt 0.8666 0.3736 0.0000
# 36 texture coords

o piernaDelanteraIzqLeona
g piernaDelanteraIzqLeona
usemtl 07___Default
s 1
f 1/1/1 2/2/2 3/3/3 
f 3/3/3 4/4/4 1/1/1 
f 5/5/5 6/6/6 1/1/1 
f 1/1/1 4/4/4 5/5/5 
f 7/7/7 6/6/6 5/5/5 
f 5/5/5 8/8/8 7/7/7 
f 8/8/8 3/3/3 2/1/2 
f 2/1/2 7/7/7 8/8/8 
f 2/2/2 1/1/1 6/9/6 
f 6/9/6 7/10/7 2/2/2 
f 3/3/9 9/11/10 10/12/11 
f 4/4/12 11/13/13 12/14/14 
f 9/11/10 12/14/14 11/13/13 
f 11/13/13 10/12/11 9/11/10 
f 1/15/15 2/2/16 3/3/9 
f 3/3/9 4/4/12 1/15/15 
f 3/3/9 2/16/16 13/17/17 
f 13/17/17 9/11/10 3/3/9 
f 14/18/18 1/15/15 4/4/12 
f 4/4/12 12/14/14 14/18/18 
f 9/11/10 13/17/17 14/18/18 
f 14/18/18 12/14/14 9/11/10 
f 13/17/17 7/7/19 6/6/20 
f 6/6/20 14/18/18 13/17/17 
f 2/16/16 7/7/19 13/17/17 
f 2/2/16 1/15/15 6/9/20 
f 6/9/20 7/10/19 2/2/16 
f 1/15/15 14/18/18 6/6/20 
f 15/19/21 16/20/22 17/21/23 
f 15/19/21 17/21/23 18/22/24 
f 18/22/24 17/21/23 19/23/25 
f 18/22/24 19/23/25 20/24/26 
f 20/24/26 19/23/25 21/25/27 
f 20/24/26 21/25/27 22/26/28 
f 23/27/29 24/14/30 25/13/31 
f 23/27/29 25/13/31 26/12/32 
f 20/24/26 27/28/33 28/29/34 
f 20/24/26 28/29/34 18/22/24 
f 28/29/34 29/30/35 15/19/21 
f 28/29/34 15/19/21 18/22/24 
f 22/26/28 30/31/36 27/28/33 
f 22/26/28 27/28/33 20/24/26 
f 24/14/30 14/18/37 30/31/36 
f 24/14/30 30/31/36 22/26/28 
f 23/27/29 13/17/38 14/18/37 
f 23/27/29 14/18/37 24/14/30 
f 29/32/35 13/17/38 23/27/29 
f 29/32/35 23/27/29 15/33/21 
f 14/18/37 6/6/39 31/34/40 
f 14/18/37 31/34/40 30/31/36 
f 13/17/38 7/7/41 6/6/39 
f 13/17/38 6/6/39 14/18/37 
f 29/32/35 2/35/42 7/7/41 
f 29/32/35 7/7/41 13/17/38 
f 2/2/42 31/34/40 6/9/39 
f 2/2/42 6/9/39 7/10/41 
f 22/26/28 21/25/27 25/13/31 
f 22/26/28 25/13/31 24/14/30 
f 23/27/29 26/12/32 16/36/22 
f 23/27/29 16/36/22 15/33/21 
f 2/2/42 28/29/34 27/28/33 
f 2/2/42 27/28/33 31/34/40 
f 2/2/42 29/30/35 28/29/34 
f 31/34/40 27/28/33 30/31/36 
# 64 faces

