# 3ds Max Wavefront OBJ Exporter v0.99 - (c)2007 guruware
# File Created: 24.05.2023 09:25:58

mtllib piernaTraseraDerLeona.mtl

#
# object piernaDelanteraIzqLeona
#

#
# object piernaTraseraDerLeona
#

v  -0.3116 -0.5535 -0.0923
v  -0.1909 -0.0381 -0.1326
v  -0.2755 -0.4893 -0.2752
v  -0.3501 -0.0787 0.3575
v  -0.1927 -0.5652 -0.0563
v  0.0000 -0.1038 0.4003
v  -0.0932 -0.4989 -0.2387
v  -0.1639 -0.2462 -0.1742
v  -0.0727 -0.2840 -0.0247
v  -0.1210 -0.5341 -0.2067
v  -0.2056 -0.4724 -0.3168
v  -0.2837 -0.4984 -0.2249
v  -0.2674 -0.3006 -0.0757
v  -0.3105 -0.5541 -0.1322
v  -0.3128 -0.3685 0.0802
v  -0.2015 -0.5602 -0.0967
v  -0.1979 -0.3858 0.1129
v  -0.1049 0.0444 -0.1908
v  -0.0623 -0.1051 0.1007
v  -0.3173 0.0178 0.2896
v  -0.2157 0.0580 -0.1449
v  -0.1712 -0.0689 0.4328
v  0.0000 -0.1161 0.3948
v  -0.2050 -0.4085 -0.2531
v  -0.2111 -0.5602 -0.0967
v  -0.2390 -0.3858 0.1129
v  -0.3017 -0.0255 0.0238
v  -0.3433 -0.0997 0.2193
v  -0.2697 -0.1244 0.3010
v  -0.1270 -0.0660 0.3203
v  -0.2898 0.1219 0.0537
v  -0.2103 -0.4724 -0.3168
# 32 vertices

vn -0.9320 0.0689 0.3557
vn -0.6905 0.1309 -0.7114
vn -0.5336 0.2384 -0.8114
vn -0.9328 -0.3557 0.0583
vn 0.4833 -0.3508 0.8021
vn 0.0000 -0.9987 0.0500
vn 0.8078 -0.0819 -0.5837
vn 0.1364 0.1416 -0.9805
vn 0.9739 -0.2256 0.0247
vn 0.9891 -0.0933 -0.1139
vn 0.0240 0.3530 -0.9353
vn -0.8678 0.2751 -0.4139
vn -0.9043 0.2034 -0.3753
vn -0.9365 -0.0088 0.3505
vn -0.8440 -0.3460 0.4099
vn 0.4163 -0.4200 0.8064
vn 0.2750 -0.6535 0.7052
vn 0.2200 -0.1056 -0.9698
vn 0.9571 -0.2896 0.0092
vn -0.9497 -0.0191 0.3126
vn -0.7710 0.1120 -0.6270
vn -0.7076 -0.7046 0.0537
vn 0.0000 -0.9758 -0.2187
vn 0.9900 -0.0801 -0.1161
vn -0.0356 0.5486 -0.8353
vn 0.0913 0.1722 -0.9808
vn 0.9633 -0.2563 0.0795
vn -0.8690 0.2808 -0.4075
vn -0.8852 0.2108 -0.4148
vn -0.9420 -0.0114 0.3353
vn -0.8786 -0.3636 0.3097
vn 0.3796 -0.4185 0.8251
vn 0.1511 -0.6830 0.7147
vn 0.0334 -0.1958 -0.9801
vn 0.8577 -0.4786 0.1880
vn -0.9398 0.0430 -0.3389
vn -0.6926 0.0959 -0.7149
vn -0.9612 -0.1389 0.2382
vn -0.3734 -0.4375 0.8180
vn -0.2185 -0.9353 0.2785
vn -0.9447 0.1636 -0.2841
vn 0.0267 0.4420 -0.8966
# 42 vertex normals

vt 0.2049 0.4706 0.0000
vt 0.1563 0.7011 0.0000
vt 0.1563 0.4961 0.0000
vt 0.3418 0.5615 0.0000
vt 0.2539 0.4492 0.0000
vt 0.4237 0.5010 0.0000
vt 0.3223 0.4160 0.0000
vt 0.0195 0.5293 0.0000
vt 0.1289 0.5664 0.0000
vt 0.0313 0.5898 0.0000
vt 0.0078 0.4688 0.0000
vt 0.0703 0.4570 0.0000
vt 0.1211 0.4531 0.0000
vt 0.1914 0.5391 0.0000
vt 0.1676 0.4256 0.0000
vt 0.2422 0.5156 0.0000
vt 0.2227 0.4023 0.0000
vt 0.2852 0.4961 0.0000
vt 0.2891 0.3789 0.0000
vt 0.3555 0.4531 0.0000
vt 0.1016 0.6797 0.0000
vt 0.0059 0.6621 0.0000
vt 0.3086 0.6387 0.0000
vt 0.1758 0.6836 0.0000
vt 0.3828 0.5586 0.0000
vt 0.4102 0.4961 0.0000
vt 0.6875 0.9180 0.0000
vt 0.7891 0.9727 0.0000
vt 0.9219 0.9805 0.0000
vt 0.6875 0.9727 0.0000
vt 0.0898 0.4961 0.0000
vt 0.0039 0.6563 0.0000
vt 0.2383 0.6406 0.0000
vt 0.3047 0.5938 0.0000
vt 0.3398 0.5664 0.0000
vt 0.2500 0.6875 0.0000
# 36 texture coords

o piernaTraseraDerLeona
g piernaTraseraDerLeona
usemtl 07___Default
s 1
f 1/1/1 2/2/2 3/3/3 
f 2/2/2 1/1/1 4/4/4 
f 5/5/5 6/6/6 4/4/4 
f 4/4/4 1/1/1 5/5/5 
f 6/6/6 5/5/5 7/7/7 
f 7/8/7 3/3/3 2/2/2 
f 8/9/8 9/10/9 10/11/10 
f 10/11/10 11/12/11 8/9/8 
f 12/13/12 13/14/13 8/9/8 
f 8/9/8 11/12/11 12/13/12 
f 12/13/12 14/15/14 15/16/15 
f 15/16/15 13/14/13 12/13/12 
f 14/15/14 16/17/16 17/18/17 
f 17/18/17 15/16/15 14/15/14 
f 16/17/16 10/19/10 9/20/9 
f 9/20/9 17/18/17 16/17/16 
f 9/10/9 8/9/8 18/21/18 
f 18/21/18 19/22/19 9/10/9 
f 20/23/20 21/24/21 13/14/13 
f 13/14/13 15/16/15 20/23/20 
f 20/23/20 15/16/15 17/18/17 
f 17/18/17 22/25/22 20/23/20 
f 17/18/17 9/20/9 19/26/19 
f 19/26/19 22/25/22 17/18/17 
f 23/27/23 19/28/19 18/29/18 
f 8/9/8 13/14/13 21/24/21 
f 21/24/21 18/21/18 8/9/8 
f 22/30/22 19/28/19 23/27/23 
f 10/11/24 24/31/25 8/9/26 
f 10/11/24 8/9/26 9/10/27 
f 24/31/25 12/13/28 13/14/29 
f 24/31/25 13/14/29 8/9/26 
f 12/13/28 14/15/30 15/16/31 
f 12/13/28 15/16/31 13/14/29 
f 14/15/30 25/17/32 26/18/33 
f 14/15/30 26/18/33 15/16/31 
f 25/17/32 10/19/24 9/20/27 
f 25/17/32 9/20/27 26/18/33 
f 9/10/27 8/9/26 18/21/34 
f 9/10/27 18/21/34 19/32/35 
f 8/9/26 13/14/29 27/33/36 
f 8/9/26 27/33/36 21/24/37 
f 13/14/29 15/16/31 28/34/38 
f 13/14/29 28/34/38 27/33/36 
f 15/16/31 26/18/33 29/35/39 
f 15/16/31 29/35/39 28/34/38 
f 26/18/33 9/20/27 19/26/35 
f 26/18/33 19/26/35 30/25/40 
f 31/36/41 21/24/37 27/33/36 
f 18/21/34 8/9/26 21/24/37 
f 30/25/40 29/35/39 26/18/33 
f 24/31/25 10/11/24 32/12/42 
f 24/31/25 32/12/42 12/13/28 
# 53 faces

