# 3ds Max Wavefront OBJ Exporter v0.99 - (c)2007 guruware
# File Created: 24.05.2023 09:22:54

mtllib piernaDelanteraDerLeona.mtl

#
# object piernaDelanteraDerLeona
#

v  -0.3349 -0.0376 0.1679
v  -0.2524 -0.1501 -0.2253
v  -0.3159 -0.7009 -0.1421
v  -0.3520 -0.7077 0.0870
v  0.0000 -0.0518 0.2838
v  -0.1680 -0.7058 0.1186
v  -0.1623 -0.7009 -0.1415
v  0.0000 -0.2361 -0.2322
v  -0.3349 -0.2078 0.1635
v  -0.3208 -0.2305 -0.1705
v  -0.3433 -0.6483 0.0708
v  -0.1635 -0.6491 0.1024
v  -0.1205 -0.1536 0.2411
v  -0.1840 -0.1792 -0.2510
v  0.0000 -0.2674 -0.3148
v  0.0000 -0.0885 0.3040
v  -0.1535 -0.2169 -0.1548
v  -0.0810 -0.1913 0.0298
v  -0.1370 -0.6688 -0.0313
v  -0.1753 -0.6763 -0.1461
v  -0.2884 -0.6763 -0.1466
v  -0.2917 -0.2305 -0.1705
v  -0.3352 -0.6684 -0.0322
v  -0.3569 -0.2088 -0.0071
v  -0.3142 -0.6483 0.0708
v  -0.3058 -0.2078 0.1635
v  -0.1776 -0.6491 0.1024
v  -0.1407 -0.2268 0.1946
v  -0.3209 -0.0217 0.2459
v  -0.3858 0.0228 0.0093
v  -0.1144 -0.0803 0.2875
v  -0.1478 -0.1839 -0.1924
v  0.0000 -0.2587 -0.1530
v  0.0000 -0.2101 0.0414
v  -0.2816 -0.1122 -0.2203
v  0.0000 -0.1026 0.3226
# 36 vertices

vn -0.9217 -0.0936 0.3763
vn -0.9036 -0.2690 -0.3334
vn -0.6199 -0.1114 -0.7767
vn -0.8599 0.2308 0.4553
vn 0.0000 -0.4923 0.8704
vn 0.6992 0.0398 0.7138
vn 0.6179 -0.2982 -0.7275
vn 0.0000 -0.8418 -0.5398
vn -0.8200 -0.1651 0.5480
vn -0.8332 -0.0975 -0.5443
vn -0.6042 -0.0869 -0.7921
vn -0.8554 0.0762 0.5124
vn 0.7028 -0.0678 0.7081
vn 0.2359 -0.6633 0.7102
vn -0.4462 -0.7579 -0.4759
vn 0.0000 -0.9998 -0.0184
vn 0.0000 -0.7285 0.6850
vn 0.6715 -0.1717 -0.7209
vn 0.6122 -0.3732 -0.6970
vn 0.4735 -0.8498 0.2315
vn 0.9942 -0.0982 -0.0434
vn 0.5792 -0.1234 -0.8058
vn -0.5522 -0.1147 -0.8258
vn -0.5556 -0.1537 -0.8171
vn -0.9946 -0.0471 -0.0920
vn -0.9946 -0.0899 -0.0521
vn -0.7679 0.0378 0.6395
vn -0.6777 -0.2591 0.6882
vn 0.5452 -0.0301 0.8378
vn 0.4819 -0.3825 0.7884
vn -0.6873 -0.2863 0.6676
vn -0.9925 -0.0046 -0.1224
vn -0.2260 -0.5965 0.7702
vn -0.3759 -0.9039 -0.2042
vn 0.0000 -0.9937 0.1120
vn 0.0000 -0.9520 0.3062
vn 0.0000 -0.9998 0.0223
vn -0.4503 -0.1425 -0.8814
vn 0.0000 -0.7368 0.6761
# 39 vertex normals

vt 0.7652 0.5598 0.0000
vt 0.6347 0.5487 0.0000
vt 0.6609 0.3591 0.0000
vt 0.7598 0.3492 0.0000
vt 0.8559 0.5449 0.0000
vt 0.8104 0.3458 0.0000
vt 0.6238 0.3628 0.0000
vt 0.6725 0.5648 0.0000
vt 0.7695 0.4961 0.0000
vt 0.6523 0.5078 0.0000
vt 0.7578 0.3750 0.0000
vt 0.8158 0.3697 0.0000
vt 0.8548 0.5273 0.0000
vt 0.4063 0.9863 0.0000
vt 0.4375 0.9180 0.0000
vt 0.1680 0.9180 0.0000
vt 0.1680 0.9688 0.0000
vt 0.5957 0.5449 0.0000
vt 0.6172 0.5234 0.0000
vt 0.5664 0.5391 0.0000
vt 0.5859 0.3984 0.0000
vt 0.6250 0.3867 0.0000
vt 0.6602 0.3828 0.0000
vt 0.7070 0.3789 0.0000
vt 0.7148 0.5000 0.0000
vt 0.8320 0.4883 0.0000
vt 0.8666 0.3736 0.0000
vt 0.8789 0.4961 0.0000
vt 0.7930 0.5625 0.0000
vt 0.7188 0.5898 0.0000
vt 0.8594 0.5352 0.0000
vt 0.2734 0.9648 0.0000
vt 0.3711 0.9844 0.0000
vt 0.3750 0.9180 0.0000
vt 0.2734 0.9180 0.0000
vt 0.6445 0.5664 0.0000
vt 0.6133 0.5469 0.0000
# 37 texture coords

o piernaDelanteraDerLeona
g piernaDelanteraDerLeona
usemtl 07___Default
s 1
f 1/1/1 2/2/2 3/3/3 
f 3/3/3 4/4/4 1/1/1 
f 5/5/5 4/4/4 6/6/6 
f 4/4/4 5/5/5 1/1/1 
f 7/7/7 3/3/3 2/2/2 
f 2/2/2 8/8/8 7/7/7 
f 8/8/8 5/5/5 6/6/6 
f 6/6/6 7/7/7 8/8/8 
f 9/9/9 10/10/10 3/3/11 
f 3/3/11 11/11/12 9/9/9 
f 11/11/12 12/12/13 13/13/14 
f 13/13/14 9/9/9 11/11/12 
f 14/14/15 15/15/16 16/16/17 
f 16/16/17 13/17/14 14/14/15 
f 7/7/18 3/3/11 10/10/10 
f 10/10/10 14/18/15 7/7/18 
f 13/13/14 12/12/13 7/7/18 
f 7/7/18 14/18/15 13/13/14 
f 17/19/19 18/20/20 19/21/21 
f 17/19/19 19/21/21 20/22/22 
f 20/22/22 21/23/23 22/10/24 
f 20/22/22 22/10/24 17/19/19 
f 21/23/23 23/24/25 24/25/26 
f 21/23/23 24/25/26 22/10/24 
f 23/24/25 25/11/27 26/9/28 
f 23/24/25 26/9/28 24/25/26 
f 25/11/27 27/12/29 28/26/30 
f 25/11/27 28/26/30 26/9/28 
f 27/12/29 19/27/21 18/28/20 
f 27/12/29 18/28/20 28/26/30 
f 24/25/26 26/9/28 29/29/31 
f 24/25/26 29/29/31 30/30/32 
f 29/29/31 26/9/28 28/26/30 
f 29/29/31 28/26/30 31/31/33 
f 18/32/20 32/33/34 33/34/35 
f 18/32/20 33/34/35 34/35/36 
f 32/33/34 15/15/37 33/34/35 
f 17/19/19 22/10/24 35/36/38 
f 17/19/19 35/36/38 32/37/34 
f 31/17/33 18/32/20 34/35/36 
f 31/17/33 34/35/36 36/16/39 
f 30/30/32 35/36/38 24/25/26 
f 18/28/20 31/31/33 28/26/30 
f 17/19/19 32/37/34 18/20/20 
f 24/25/26 35/36/38 22/10/24 
# 45 faces

